<?xml version="1.0" encoding="utf-8"?>
<!-- Generator: Adobe Illustrator 22.1.0, SVG Export Plug-In . SVG Version: 6.00 Build 0)  -->
<svg version="1.1" xmlns="http://www.w3.org/2000/svg" xmlns:xlink="http://www.w3.org/1999/xlink" x="0px" y="0px"
	 viewBox="0 0 640 480" style="enable-background:new 0 0 640 480;" xml:space="preserve">
<style type="text/css">
	.st0{fill:#006233;}
	.st1{fill:#FFFFFF;stroke:#FFFFFF;stroke-width:0.4008;}
	.st2{fill:#FFFFFF;stroke:#FFFFFF;}
	.st3{fill:#FFFFFF;stroke:#FFFFFF;stroke-width:4.008;stroke-linecap:round;stroke-linejoin:round;}
	.st4{fill:#FFFFFF;}
	.st5{fill:#FFFFFF;stroke:#000000;stroke-width:8.012;}
	.st6{fill:none;stroke:#F7C608;stroke-width:8.1208;stroke-linecap:round;stroke-linejoin:round;}
	.st7{fill:#F7C608;}
</style>
<g id="Layer_1">
	<path id="_x32_1399192" class="st0" d="M640,480V0L0,0v480L640,480L640,480z"/>
</g>
<g id="Layer_2">
	<g id="g13004" transform="matrix(1.1437 0 0 1.1446 -.39167 -145.67)">
		<g id="g9244" transform="matrix(1.7598 0 0 1.6 -2175.2 -3398.1)">
			<path id="path3159" class="st1" d="M1361.1,2341c-5.5,8.2-1.5,13.6,4.1,14c3.7,0.3,11.5-5.3,11.5-11.8l-2.1-1.2
				c1.2,3.3,0,4.4-2.6,6.7C1367,2353.2,1356.9,2353.6,1361.1,2341z"/>
			<path id="path3115" class="st2" d="M1404.6,2362.7c30.9,0.9,40.7-29,21.7-54.6l-1.9,2.8c1.2,11.9,3,23.7,3.2,35.9
				c-3.7,4.4-9.2,2.8-10.2-2.1c0.1-6.6-2.1-12.2-4.8-17.5l-1.5,2.8c1.8,4.4,3.7,9.3,4.1,14.7c-8.8,10.6-18.6,12.7-14.9-1.2
				c-7,12.2,3.6,20.8,15.5,2c2.6,12.8,12.5,4.9,13.1,2.1c1.1-8.4,0.5-21.9-1.7-32.6c8.6,14.9,8.9,25.6,4.3,32.8
				C1426.3,2355.8,1415.3,2359.5,1404.6,2362.7L1404.6,2362.7z"/>
			<path id="path3117" class="st2" d="M1422.1,2328.9c-6.6,0.5-10-0.9-6.4-5.8c3.5-4.8,6.8-1,7.7,5.4c0.8,6-11.6,13.6-15.9,13.6
				c-6.5,0-9.5-8.4-3.5-15.9C1396.3,2348.2,1420.7,2335.5,1422.1,2328.9z M1417.6,2323.8c-0.8,0-1.4,1.4-1,1.7
				c1.2,0.8,3,0.3,3.2-0.1C1420.2,2324.4,1418.7,2323.8,1417.6,2323.8L1417.6,2323.8z"/>
			<path id="path3140" class="st2" d="M1386.2,2339.2c-6.4,12.5,0,17.7,8.1,16.2c4.7-0.9,10.8-4.2,14.2-8.8c0.1-10.1-0.1-20.2-1-30
				c3.2-3.8-0.3-3.8-1.5-7.8c-0.6,2.4-1.9,4.9-0.6,6.8c0.9,9.9,1.4,19.9,1.4,30.1c-6.4,5.1-11.2,7.1-14.6,7
				C1385.2,2352.7,1383.7,2346.7,1386.2,2339.2L1386.2,2339.2z"/>
			<path id="path3150" class="st2" d="M1399.2,2342.5c-0.1-9.4-0.3-20.1-1.1-26.7c3.3-3.7-0.2-3.8-1.3-7.9c-0.6,2.3-2,4.9-0.8,6.8
				c0.6,10.1,1.1,20.2,1.2,30.3C1398,2344.5,1398.9,2344.3,1399.2,2342.5L1399.2,2342.5z"/>
			<path id="path3152" class="st1" d="M1374.6,2342.1c-0.8-1-1.4-2.2-2-3.2c-0.1-1.4,0.8-2.7,1-3.5c1.1,1.7,1.7,2.9,2.6,3.8
				 M1377.2,2339.9c1.6,0.6,3.5,0.6,5.3,0.7c7,0.1,14.3-1,13.5,8.4c-0.7,8.3-7.6,13.2-13.8,13.1c-8.8-0.1-16.4-9.8-2.8-27.8
				c1.3-0.2,3,0.1,4.5,0.3c2.4,0.2,4.9,0,7.8-2.3c-0.3-5.9-0.3-11.5-1.1-16.8c-1.2-1.9,0.2-4.4,0.8-6.8c1.1,4.1,4.5,4.2,1.3,7.9
				c0.8,5.9,0.9,12,0.9,15.6c-1.7,2.5-2.9,5.2-7.8,6.2c-4.9-0.7-7.2-7.6-12.3-5.3c1.4-6.2,14.5-7.7,15.8-2.7
				c-0.9,5.1-13.1,3.1-16.3,19.6c-1,5.1,4.4,9.8,9.9,9.4c5.4-0.4,11.2-4.1,11.7-10.4c0.4-5.3-7-4.7-10.1-4.6
				c-4.5,0.1-7.4-0.6-9.1-1.6 M1380.1,2331.3c0.8-0.8,3.6-1.3,4.6-0.1c-0.8,0.5-1.5,1.1-2.1,1.7
				C1381.5,2332.4,1380.8,2331.8,1380.1,2331.3z"/>
			<path id="path3161" class="st2" d="M1387,2313.7c0.8,1.7,1.1,2.8,1.1,4.5c-0.5,2.2-2.4,4.3-4.3,4.3c-1.2,0-2.6-0.3-3.5-2.2
				c-0.1-0.2-0.6-0.8-1.1-0.5c-2.1,3.5-3.7,5-5.7,5c-3.9-0.1-2.7-3.5-6.3-4.6c-1.5,0-3.9,1.5-5.2,4.4c-4.7,13.5-9.1,0-7.2-6.3
				c0.3,6,1.7,9.6,3.2,9.5c1.1-0.1,2-2.6,3.4-5.2c1.1-2,3.6-5.6,6.3-5.6c2.5,0.1,0.9,4.6,5.8,4.5c2.4,0,4.6-1.9,6.8-5.5
				c0.5-0.1,0.6,0.8,0.7,1.1c0.3,1.3,2.5,4.7,5.4,1.5c-0.1-0.7-0.1-1.8-0.8-2L1387,2313.7z"/>
			<path id="path3163" class="st1" d="M1402.4,2302.6c-2.6,1.3-4.5,0.1-5.6-1c1.9-0.4,3.3-1.1,3.8-2.5c-0.8-1.9-2.9-2.7-5.7-2.8
				c-3.8,0.1-5.7,1.6-6,3.7c1.8,0.1,3.3-0.4,4,1.3c-3.1,1.5-6.8,2.1-10.8,2.1c-6.5,0.3-7.5-2.6-9.2-5.2c-0.1-0.2-0.7-0.4-1-0.4
				c-2,0-3.5,7-5.8,7c-2.3-0.3-1.8-4.5-2.4-7c-0.6,3.8,0.7,17.9,7.7,2.6c0.2-0.5,0.5-0.4,0.7,0.1c1.9,4.3,5.7,5.8,9.9,6
				c3.5,0.2,7.9-1.3,12.6-4c1.3,1.4,2.2,2.9,4.9,3.2c3.1,0.1,6.4-2.1,7.1-4.8c0.4-1.4,0.4-4.2-1.1-4.3c-2.1-0.1-3.6,5-3.1,9.6
				c0-0.1,0.3-1.1,0.3-1.1 M1393.5,2298.9c1.4-0.6,2.7-0.9,3.8,0.5c-0.8,0.3-1.3,0.5-1.8,0.8
				C1394.9,2299.8,1394,2299.5,1393.5,2298.9z M1403.6,2302.1c0.3-1.5,0.5-2.7,1.8-3.5C1405.6,2300.2,1405.6,2301.1,1403.6,2302.1z"
				/>
			<path id="path3169" class="st1" d="M1411.8,2304.4c-0.4-1.3-0.8-2.4-0.9-3.8c-0.3-2.8,2.1-4.5,4.3-4.2c2.3,0.2,3.8,1.1,5.9,1.8
				c1.7,0.6,4,1,6.2,1.6c1.2,0.6,0,2-0.3,2.2c-5.5,2.1-9.3,5.5-12.8,5.7c-2.1,0.1-3.9-1.3-5.6-4c-0.1-5.4-0.3-11.7-0.8-15.7
				c0.8-0.8,1-1.4,1.4-2.1c0.4,5.2,0.6,10.7,0.7,16.3C1410.3,2303.2,1410.9,2304,1411.8,2304.4L1411.8,2304.4z M1415.3,2304.8
				c-2.9,0.8-2.6-1.7-2.8-3.2c-0.3-1.8-0.1-3.8,2.2-3.3c2.9,0.8,5.6,1.8,8.2,2.9L1415.3,2304.8z"/>
			<path id="path3173" class="st1" d="M1412.5,2307.5l0.4,2h0.3l-0.1-1.8"/>
			<path id="path5196" class="st3" d="M1365.8,2328.1l1.5-1.5l1.7,1.5l-1.6,1.4L1365.8,2328.1z"/>
			<path id="path6168" class="st3" d="M1369.6,2327.6l1.5-1.5l1.7,1.5l-1.6,1.4L1369.6,2327.6z"/>
			<path id="path6170" class="st3" d="M1359.1,2311.8l1.5-1.5l1.7,1.5l-1.6,1.4L1359.1,2311.8z"/>
			<path id="path6172" class="st3" d="M1359.8,2316.2l1.5-1.5l1.7,1.5l-1.6,1.4L1359.8,2316.2z"/>
			<path id="path6174" class="st3" d="M1387,2323.8l1.4-1.1l1.3,1.4l-1.4,1L1387,2323.8z"/>
			<path id="path6176" class="st3" d="M1368.8,2295l1-1l1.1,1l-1,0.9L1368.8,2295z"/>
			<path id="path6178" class="st3" d="M1371.3,2294.7l1-1l1.1,1l-1,0.9L1371.3,2294.7z"/>
			<path id="path6180" class="st3" d="M1423.4,2306.1l-0.9,0.8l-0.9-0.9l1-0.7L1423.4,2306.1z"/>
			<path id="path9240" class="st1" d="M1379.5,2334.2l-0.1,1.7l2.7,0.3l2.1-1.6L1379.5,2334.2L1379.5,2334.2z"/>
			<path id="path9242" class="st2" d="M1402.1,2302.9l0.8-0.2l-0.1,2.2l-0.5,0.2L1402.1,2302.9L1402.1,2302.9z"/>
		</g>
		<path id="path2722" class="st4" d="M281.9,427.2c52.9,0,96-39.2,96-87.3c0-26.5-13-50.1-33.4-66.1c12.3,13.1,19.7,30.4,19.7,49.2
			c0,41.8-36.8,75.7-82.3,75.7c-45.5,0-82.3-33.9-82.3-75.7c0-18.8,7.5-36.1,19.7-49.2c-20.5,16-33.4,39.6-33.4,66.1
			C185.9,388,228.9,427.2,281.9,427.2L281.9,427.2z"/>
		<g id="g2908" transform="matrix(1.1355 0 0 1.0324 2.7256 -21.429)">
			<path id="path2910" class="st5" d="M234.4,481.5c-18.6,9.3-42,6.8-61.7-5.9c-0.8-0.4-1.3,0.2-0.4,2.5c2.1,6.1,3.8,11-2.5,20.1
				c-2.8,4,0.4,4.7,5.1,4.2c23.7-2.3,47-7.6,58.3-12.1L234.4,481.5z"/>
			<path id="path2912" class="st5" d="M234,492.6c-7.4,3-20.1,6.6-34.3,9.1c-5.7,0.8-5.5,4.5,4.7,5.7c10.4,1.1,23.7-6.4,31.8-12.9
				L234,492.6z"/>
			<path id="path2914" class="st5" d="M245.8,472.2c2.5,0,7.2-1.1,11.9-1.7c8.7-1.5,2.3,11.9-11.9,11.9v4.5
				c14.4,0,29.5-15.7,26.3-22.7c-4.5-10.2-16.7-1.5-26.3-1.5s-21.8-8.7-26.3,1.5c-3.2,7,11.9,22.7,26.3,22.7v-4.5
				c-14.2,0-20.6-13.4-11.9-11.9C238.6,471.2,243.3,472.2,245.8,472.2z"/>
			<path id="path2916" class="st5" d="M257.3,481.5c18.6,9.3,42,6.8,61.7-5.9c0.8-0.4,1.3,0.2,0.4,2.5c-2.1,6.1-3.8,11,2.5,20.1
				c2.8,4-0.4,4.7-5.1,4.2c-23.7-2.3-47-7.6-58.3-12.1L257.3,481.5z"/>
			<path id="path2918" class="st5" d="M257.7,492.6c7.4,3,19.9,6.6,34.3,9.1c5.7,0.8,5.5,4.5-4.7,5.7c-10.4,1.1-23.7-6.4-31.8-12.9
				L257.7,492.6z"/>
			<path id="path2920" class="st5" d="M246.5,490.4c0.4,3.6,1.1,11.4,5.9,8.1c6.6-4.5,8.1-7.8,8.1-14.2c0-4-4.9-10-14.6-10
				c-9.7,0-14.6,5.9-14.6,10c0,6.4,1.5,9.7,8.1,14.2c4.9,3.4,5.3-4.5,5.9-8.1C245.4,489.2,246.5,489.6,246.5,490.4z"/>
		</g>
		<g id="g2724" transform="matrix(1.1355 0 0 1.0324 2.7256 -21.429)">
			<path id="path2726" class="st5" d="M239.7,219c-2.8-15.7-25.9-16.7-29.5-19.3c-4.2-2.8-3.6,0-2.1,4.2c4.2,11,18.6,15.5,25.2,16.7
				C238.6,221.5,240.3,221.9,239.7,219z"/>
			<path id="path2728" class="st5" d="M246.7,219.4c2.3-16.1-20.6-23.7-23.3-27.3c-3.2-3.8-3.6-1.5-2.1,3
				c2.8,9.5,12.7,20.8,18.6,23.7C244.8,221.3,246.3,222.4,246.7,219.4z"/>
			<path id="path2730" class="st5" d="M265.6,228.7c2.1-19.3-16.5-22.3-21.4-28.4c-3.2-3.8-3.4-1.7-2.3,2.8
				c2.1,9.7,11.4,21.2,17.2,24.8C263.4,230.6,265.3,231.7,265.6,228.7z"/>
			<path id="path2732" class="st5" d="M259.8,224.5c-19.3-12.5-32.8-5.5-38.4-6.1c-5.3-0.6-7,2.8,2.1,7.8c11.2,6.1,26.9,5.3,33.1,3
				C263,226.6,261.1,225.3,259.8,224.5z"/>
			<path id="path2734" class="st5" d="M288.9,233c-5.9-20.8-19.7-17.4-23.7-19.9c-4-2.5-4.5-1.9-3.6,2.8
				c1.7,8.3,15.9,17.4,22.9,20.1C287,236.8,290.1,238,288.9,233z"/>
			<path id="path2736" class="st5" d="M286.1,236.6c-16.5-13.4-29.5-3.4-34.5-4.9c-3.8-1.1-2.1,1.5-0.6,2.5
				c10.6,7.4,23.7,11.4,33.9,6.8C288.9,239.3,289.1,238.9,286.1,236.6z"/>
			<path id="path2738" class="st5" d="M321.9,250.1c0.2-13.1-26.9-18.6-32.6-26.7c-3.4-4.9-6.4-2.3-4.7,5.5
				c2.5,10.2,21.2,21.4,31.4,23.5C322.1,253.7,321.9,251.6,321.9,250.1z"/>
			<path id="path2740" class="st5" d="M321.1,252.5c-17.2-15.5-31.6-10.4-36.9-11.9c-5.3-1.3-7.4,1.9,0.8,8.3
				c10.2,7.6,25.9,9.1,32.4,7.6C324,255,322.4,253.5,321.1,252.5z"/>
			<path id="path2742" class="st5" d="M351.8,275.1c-4.9-22.5-20.3-27.1-24.2-31.4c-3.6-4.2-7.4-3-4.2,7.2
				c3.8,12.1,16.3,22.7,22.9,25.2C352.7,278.9,352.2,276.8,351.8,275.1z"/>
			<path id="path2744" class="st5" d="M351.6,278.1c-12.5-20.1-28.8-19.5-33.9-22.3c-4.9-3-8.3-0.4-1.7,8.3
				c7.6,10.6,23.3,16.5,30.5,17C353.7,281.5,352.4,279.6,351.6,278.1z"/>
			<path id="path2746" class="st5" d="M367.7,302c7.2-22.9-9.3-31.4-11-35.2c-1.9-3.8-3.8-3.8-4.9,0.2
				c-4.7,16.3,10.4,32.2,12.7,35.4C366.9,305.4,367.3,304,367.7,302z"/>
			<path id="path2748" class="st5" d="M364.3,308.4c-5.7-25.6-20.8-24.2-24.2-27.8c-3.6-3.6-4-1.1-3.4,3.6
				c1.7,12.5,16.7,21,23.5,25.2C362.4,310.7,364.9,312.2,364.3,308.4z"/>
			<path id="path2750" class="st5" d="M378.7,338.5c10.4-24.2-1.9-40.5-5.7-44.1c-3.8-3.4-6.1-4.9-4.9,0c1.7,7.4-4.2,26.5,4.9,40.5
				C376,339.6,376.4,344,378.7,338.5z"/>
			<path id="path2752" class="st5" d="M373.2,343.4c2.3-14.8-6.1-28.4-15.3-33.7c-5.3-3.2-5.5-2.3-5.5,2.1
				c0.4,13.8,13.4,25.2,17.2,31.6C373.2,349.3,373,344.9,373.2,343.4z"/>
			<path id="path2754" class="st5" d="M370.9,381.9c-7.6-28,8.3-44.1,13.1-47.3c4.7-3.4,7.6-4.7,5.5,0.6
				c-3.2,7.8,0.2,29.7-11.9,43.4C373.8,383.4,372.4,388.3,370.9,381.9z"/>
			<path id="path2756" class="st5" d="M372.6,375.8c6.4-24.4-7.4-38.1-11.7-40.9c-4-2.8-6.6-3.8-4.7,0.6c2.5,6.8-0.2,25.9,10.4,37.7
				C370,377.3,371.3,381.3,372.6,375.8z"/>
			<path id="path2758" class="st5" d="M364.7,364.4c-11.4,12.3-11.7,30.3-6.6,40.9c3.2,6.1,3.6,5.7,6.6,1.3
				c8.1-12.9,3.2-31.6,3.6-39.8C368.5,358.8,366,363.1,364.7,364.4z"/>
			<path id="path2760" class="st5" d="M383.6,383.8c0,17-10.4,30.7-21.4,35c-6.4,2.3-6.4,1.7-5.5-3.4c3-19.1,17.6-26.1,22.9-32.2
				C384.7,377.3,383.6,382.2,383.6,383.8z"/>
			<path id="path2762" class="st5" d="M344.2,434.3c18.6-17,8.7-28.8,9.5-39.8c0.4-5.9-1.9-4.5-4-2.3c-11.9,11.7-12.5,32.4-10,40.5
				C340.8,436.2,342.5,435.8,344.2,434.3z"/>
			<path id="path2764" class="st5" d="M369.2,423.3c-6.1,18.6-22.5,30.1-36.2,30.7c-8.1,0.4-7.8-0.2-5.1-5.7
				c10.4-19.9,28.8-22.3,37.1-27.3C372.6,416.3,369.8,421.4,369.2,423.3z"/>
			<path id="path2766" class="st5" d="M318.5,458.2c24.2-12.1,19.3-32.2,23.7-37.3c3.2-3.6-0.6-3.2-2.5-1.9
				c-14.2,8.3-25.6,21.4-25.9,35.4C313.9,459.7,314.3,460.4,318.5,458.2z"/>
			<path id="path2768" class="st5" d="M285.5,480.7c30.5,4.9,44.7-18.2,53.6-20.3c4.7-1.1,1.3-3-1.1-3.2c-20.3-2.3-46.2,7.2-54,17.8
				C280.8,479.2,280.8,480.1,285.5,480.7z"/>
			<path id="path2770" class="st5" d="M316.4,444.5c-6.1,20.1-29,36.7-46.2,37.9c-8.1,0.6-8.1-0.2-5.1-5.5
				c13.8-25,37.7-29.2,46.2-35.6C318.5,435.8,317.1,442.6,316.4,444.5z"/>
			<path id="path2772" class="st5" d="M252,219c2.8-15.7,25.9-16.7,29.5-19.3c4.2-2.8,3.6,0,2.1,4.2c-4.2,11-18.6,15.5-25.2,16.7
				C253.1,221.5,251.4,221.9,252,219z"/>
			<path id="path2774" class="st5" d="M245,219.4c-2.3-16.1,20.6-23.7,23.3-27.3c3.2-3.8,3.6-1.5,2.1,3
				c-2.8,9.5-12.7,20.8-18.6,23.7C246.9,221.3,245.4,222.4,245,219.4z"/>
			<path id="path2776" class="st5" d="M226.1,228.7c-2.1-19.3,16.5-22.3,21.4-28.4c3.2-3.8,3.4-1.7,2.3,2.8
				c-2.1,9.7-11.4,21.2-17.2,24.8C228.3,230.6,226.4,231.7,226.1,228.7z"/>
			<path id="path2778" class="st5" d="M231.9,224.5c19.3-12.5,32.8-5.5,38.4-6.1c5.3-0.6,7,2.8-2.1,7.8c-11.2,6.1-26.9,5.3-33.1,3
				C228.7,226.6,230.6,225.3,231.9,224.5z"/>
			<path id="path2780" class="st5" d="M202.8,233c5.9-20.8,19.7-17.4,23.7-19.9c4-2.5,4.5-1.9,3.6,2.8c-1.7,8.3-15.9,17.4-22.9,20.1
				C204.7,236.8,201.6,238,202.8,233z"/>
			<path id="path2782" class="st5" d="M205.6,236.6c16.5-13.4,29.5-3.4,34.5-4.9c3.8-1.1,2.1,1.5,0.6,2.5
				c-10.6,7.4-23.7,11.4-33.9,6.8C202.8,239.3,202.6,238.9,205.6,236.6z"/>
			<path id="path2784" class="st5" d="M169.8,250.1c-0.2-13.1,26.9-18.6,32.6-26.7c3.4-4.9,6.4-2.3,4.7,5.5
				c-2.5,10.2-21.2,21.4-31.4,23.5C169.6,253.7,169.8,251.6,169.8,250.1z"/>
			<path id="path2786" class="st5" d="M170.6,252.5c17.2-15.5,31.6-10.4,36.9-11.9c5.3-1.3,7.4,1.9-0.8,8.3
				c-10.2,7.6-25.9,9.1-32.4,7.6C167.6,255,169.3,253.5,170.6,252.5z"/>
			<path id="path2788" class="st5" d="M139.9,275.1c4.9-22.5,20.3-27.1,24.2-31.4c3.6-4.2,7.4-3,4.2,7.2
				c-3.8,12.1-16.3,22.7-22.9,25.2C139,278.9,139.5,276.8,139.9,275.1z"/>
			<path id="path2790" class="st5" d="M140.1,278.1c12.5-20.1,28.8-19.5,33.9-22.3c4.9-3,8.3-0.4,1.7,8.3
				c-7.6,10.6-23.3,16.5-30.5,17C138,281.5,139.3,279.6,140.1,278.1z"/>
			<path id="path2792" class="st5" d="M124,302c-7.2-22.9,9.3-31.4,11-35.2c1.9-3.8,3.8-3.8,4.9,0.2c4.7,16.3-10.4,32.2-12.7,35.4
				C124.8,305.4,124.4,304,124,302z"/>
			<path id="path2794" class="st5" d="M127.4,308.4c5.7-25.6,20.8-24.2,24.2-27.8c3.6-3.6,4-1.1,3.4,3.6
				c-1.7,12.5-16.7,21-23.5,25.2C129.3,310.7,126.7,312.2,127.4,308.4z"/>
			<path id="path2796" class="st5" d="M113,338.5c-10.4-24.2,1.9-40.5,5.7-44.1c3.8-3.4,6.1-4.9,4.9,0c-1.7,7.4,4.2,26.5-4.9,40.5
				C115.7,339.6,115.3,344,113,338.5z"/>
			<path id="path2798" class="st5" d="M118.5,343.4c-2.3-14.8,6.1-28.4,15.3-33.7c5.3-3.2,5.5-2.3,5.5,2.1
				c-0.4,13.8-13.4,25.2-17.2,31.6C118.5,349.3,118.7,344.9,118.5,343.4z"/>
			<path id="path2800" class="st5" d="M120.8,381.9c7.6-28-8.3-44.1-13.1-47.3c-4.7-3.4-7.6-4.7-5.5,0.6c3.2,7.8-0.2,29.7,11.9,43.4
				C117.8,383.4,119.1,388.3,120.8,381.9z"/>
			<path id="path2802" class="st5" d="M119.1,375.8c-6.4-24.4,7.4-38.1,11.7-40.9c4-2.8,6.6-3.8,4.7,0.6
				c-2.5,6.8,0.2,25.9-10.4,37.7C121.7,377.3,120.4,381.3,119.1,375.8z"/>
			<path id="path2804" class="st5" d="M127,364.4c11.4,12.3,11.7,30.3,6.6,40.9c-3.2,6.1-3.6,5.7-6.6,1.3
				c-8.1-12.9-3.2-31.6-3.6-39.8C123.1,358.8,125.7,363.1,127,364.4z"/>
			<path id="path2806" class="st5" d="M108.1,383.8c0,17,10.4,30.7,21.4,35c6.4,2.3,6.4,1.7,5.5-3.4c-3-19.1-17.6-26.1-22.9-32.2
				C107,377.3,108.1,382.2,108.1,383.8z"/>
			<path id="path2808" class="st5" d="M147.5,434.3c-18.6-17-8.7-28.8-9.5-39.8c-0.4-5.9,1.9-4.5,4-2.3c11.9,11.7,12.5,32.4,10,40.5
				C150.9,436.2,149.2,435.8,147.5,434.3z"/>
			<path id="path2810" class="st5" d="M122.5,423.3c6.1,18.6,22.5,30.1,36.2,30.7c8.1,0.4,7.8-0.2,5.1-5.7
				c-10.4-19.9-28.8-22.3-37.1-27.3C119.1,416.3,121.9,421.4,122.5,423.3z"/>
			<path id="path2812" class="st5" d="M173.2,458.2c-24.2-12.1-19.3-32.2-23.7-37.3c-3.2-3.6,0.6-3.2,2.5-1.9
				c14.2,8.3,25.6,21.4,25.9,35.4C177.8,459.7,177.4,460.4,173.2,458.2z"/>
			<path id="path2814" class="st5" d="M206.2,480.7c-30.5,4.9-44.7-18.2-53.6-20.3c-4.7-1.1-1.3-3,1.1-3.2
				c20.3-2.3,46.2,7.2,54,17.8C210.9,479.2,210.9,480.1,206.2,480.7z"/>
			<path id="path2816" class="st5" d="M175.3,444.5c6.1,20.1,29,36.7,46.2,37.9c8.1,0.6,8.1-0.2,5.1-5.5
				c-13.8-25-37.7-29.2-46.2-35.6C173.2,435.8,174.6,442.6,175.3,444.5z"/>
		</g>
		<g id="g2818" transform="matrix(1.1355 0 0 1.0324 2.7256 -21.429)">
			<path id="path2820" class="st0" d="M281.7,238.5c-4-3-18.9-1.3-21.6-3.2C265.3,239.7,277.2,236.6,281.7,238.5z"/>
			<path id="path2822" class="st0" d="M317.5,246.1c-3.2-5.7-22-9.5-24.8-14.6C297.6,241.2,312.2,240,317.5,246.1z"/>
			<path id="path2824" class="st0" d="M314.7,252.7c-7-6.8-23.3-4-28.2-8.1C298,255,304.3,246.9,314.7,252.7z"/>
			<path id="path2826" class="st0" d="M273.8,222.6c4.5,2.3,10,4.7,12.7,10.2c-3.2-4.2-8.9-5.9-13.6-9.5
				C273.2,223.2,273.6,222.8,273.8,222.6z"/>
			<path id="path2828" class="st0" d="M343.3,266.2c-2.8-6.4-12.5-13.4-13.4-15.7C332.7,258.8,340.8,260.7,343.3,266.2z"/>
			<path id="path2830" class="st0" d="M345.9,277.5c-8.5-13.4-21.8-11.9-27.1-17C322.8,265.4,338,268.6,345.9,277.5z"/>
			<path id="path2832" class="st0" d="M365.6,298c0.6-14.2-10-19.5-10.4-27.5C355,280,366,292.9,365.6,298z"/>
			<path id="path2834" class="st0" d="M360.3,305.7c-2.1-12.3-16.5-13.1-19.1-20.3C341.2,292.1,358.2,299.1,360.3,305.7z"/>
			<path id="path2836" class="st0" d="M372.2,298.7c7.6,9.3,2.3,23.5,5.5,33.9C373.8,324.9,375.8,305.9,372.2,298.7z"/>
			<path id="path2838" class="st0" d="M359.6,338.5c11.4,12.3,6.8,26.1,11.4,32C365.4,362.2,366.2,346.1,359.6,338.5z"/>
			<path id="path2840" class="st0" d="M383.4,340.2c-9.7,10.8-3.8,27.1-8.9,34.8C380.2,368.4,379.4,348.2,383.4,340.2z"/>
			<path id="path2842" class="st0" d="M371.1,340.2c-1.3-12.5-12.9-19.1-14-25.9C355.8,321.1,368.3,331.7,371.1,340.2z"/>
			<path id="path2844" class="st0" d="M365.2,370.1c1.9,8.7-5.1,27.3-3,33.1C357.5,393.2,366.2,374.3,365.2,370.1z"/>
			<path id="path2846" class="st0" d="M380.2,390c-4.7,15.5-14,14.4-17,23.7C365.4,404.8,377.7,396.8,380.2,390z"/>
			<path id="path2848" class="st0" d="M349.9,397.2c-6.1,10.4-1.1,22.3-6.1,29.7C351,419.5,347.1,405.7,349.9,397.2z"/>
			<path id="path2850" class="st0" d="M364.7,425.6c-7.4,13.8-22.7,12.5-28.8,22.5C342.1,435.6,360.9,433.4,364.7,425.6z"/>
			<path id="path2852" class="st0" d="M337.8,423.9c-13.1,9.1-9.1,18.6-19.1,28.8C331.3,442.6,330.2,431.3,337.8,423.9z"/>
			<path id="path2854" class="st0" d="M331.7,460.8c-12.7-0.4-30.9,16.1-42,14.8C300.7,477.9,321.1,463.1,331.7,460.8z"/>
			<path id="path2856" class="st0" d="M311.1,445.9c-0.8,12.9-33.9,21.2-37.5,29.9C277.6,464.4,306.7,455.9,311.1,445.9z"/>
			<path id="path2858" class="st0" d="M236.3,207.5c-4.2-3.6-9.3-6.6-10.8-10.2c1.1,4.7,5.3,8.1,9.5,11.2
				C235.5,208.4,235.9,207.7,236.3,207.5z"/>
			<path id="path2860" class="st0" d="M229.1,211.3c-6.6-3.2-14.2-3-17.6-7.4c2.1,4.5,9.3,6.1,15.5,8.5
				C227.6,212,228.5,211.6,229.1,211.3z"/>
			<path id="path2862" class="st0" d="M210,238.5c4-3,18.9-1.3,21.6-3.2C226.4,239.7,214.5,236.6,210,238.5z"/>
			<path id="path2864" class="st0" d="M174.2,246.1c3.2-5.7,22-9.5,24.8-14.6C194.1,241.2,179.5,240,174.2,246.1z"/>
			<path id="path2866" class="st0" d="M177,252.7c7-6.8,23.3-4,28.2-8.1C193.7,255,187.4,246.9,177,252.7z"/>
			<path id="path2868" class="st0" d="M205.2,232.7c4-8.5,15.5-9.5,18.4-14.6C219.1,225.8,209.4,227,205.2,232.7z"/>
			<path id="path2870" class="st0" d="M237.8,225.3c11.7-5.5,23.1-0.8,28.6-3.4C259.6,225.5,243.5,223.8,237.8,225.3z"/>
			<path id="path2872" class="st0" d="M148.4,266.2c2.8-6.4,12.5-13.4,13.4-15.7C159,258.8,150.9,260.7,148.4,266.2z"/>
			<path id="path2874" class="st0" d="M145.8,277.5c8.5-13.4,21.8-11.9,27.1-17C168.9,265.4,153.7,268.6,145.8,277.5z"/>
			<path id="path2876" class="st0" d="M126.1,298c-0.6-14.2,10-19.5,10.4-27.5C136.7,280,125.7,292.9,126.1,298z"/>
			<path id="path2878" class="st0" d="M131.4,305.7c2.1-12.3,16.5-13.1,19.1-20.3C150.5,292.1,133.5,299.1,131.4,305.7z"/>
			<path id="path2880" class="st0" d="M119.5,298.7c-7.6,9.3-2.3,23.5-5.5,33.9C117.8,324.9,115.9,305.9,119.5,298.7z"/>
			<path id="path2882" class="st0" d="M132,338.5c-11.4,12.3-6.8,26.1-11.4,32C126.3,362.2,125.5,346.1,132,338.5z"/>
			<path id="path2884" class="st0" d="M108.3,340.2c9.7,10.8,3.8,27.1,8.9,34.8C111.5,368.4,112.3,348.2,108.3,340.2z"/>
			<path id="path2886" class="st0" d="M120.6,340.2c1.3-12.5,12.9-19.1,14-25.9C135.9,321.1,123.4,331.7,120.6,340.2z"/>
			<path id="path2888" class="st0" d="M126.5,370.1c-1.9,8.7,5.1,27.3,3,33.1C134.2,393.2,125.5,374.3,126.5,370.1z"/>
			<path id="path2890" class="st0" d="M111.5,390c4.7,15.5,14,14.4,17,23.7C126.3,404.8,114,396.8,111.5,390z"/>
			<path id="path2892" class="st0" d="M141.8,397.2c6.1,10.4,1.1,22.3,6.1,29.7C140.7,419.5,144.5,405.7,141.8,397.2z"/>
			<path id="path2894" class="st0" d="M127,425.6c7.4,13.8,22.7,12.5,28.8,22.5C149.6,435.6,130.8,433.4,127,425.6z"/>
			<path id="path2896" class="st0" d="M153.9,423.9c13.1,9.1,9.1,18.6,19.1,28.8C160.4,442.6,161.5,431.3,153.9,423.9z"/>
			<path id="path2898" class="st0" d="M160,460.8c12.7-0.4,30.9,16.1,42,14.8C191,477.9,170.6,463.1,160,460.8z"/>
			<path id="path2900" class="st0" d="M180.6,445.9c0.8,12.9,33.9,21.2,37.5,29.9C214.1,464.4,185,455.9,180.6,445.9z"/>
			<path id="path2902" class="st0" d="M228.7,225.8c2.5-11.4,15.3-13.6,17-20.3C245,212.6,230,220.7,228.7,225.8z"/>
			<path id="path2904" class="st0" d="M266.2,197.4c-1.9,8.7-15.7,13.6-17.6,20.1C249.2,208.6,263.4,203.5,266.2,197.4z"/>
			<path id="path2906" class="st0" d="M255.4,217.9c6.6-10.6,20.1-7.8,24.8-14C276.8,211.1,260,211.3,255.4,217.9z"/>
		</g>
		<path id="path12826" class="st6" d="M394.6,338.8c0,56.8-50.7,102.9-113.2,102.9s-113.2-46.1-113.2-102.9s50.7-102.9,113.2-102.9
			S394.6,281.9,394.6,338.8z"/>
		<g id="g12874" transform="matrix(1.089 .29066 -.31969 .99014 322.08 9.1715)">
			<path id="path12861" class="st7" d="M64.9,417.8v1.3c0,0.8-0.6,1.5-1.5,1.7c-2.1,0-4.9,0.2-7.4,0.2l0-8.1c2.8,0,5.5-0.2,7.4-0.4
				c0.8,0,1.5,0.6,1.5,1.5v1.1 M47.1,415.2V414c0-0.8,0.6-1.5,1.5-1.5c2.1,0.2,4.7,0.4,7.4,0.4l0,8.1c-2.5,0-5.1,0-7.4-0.2
				c-0.8-0.2-1.5-1.7-1.5-2.5"/>
			<path id="path12865" class="st0" d="M63.4,417.5v0.9c0,0.6-0.5,1.1-1.2,1.2c-1.8,0-4.1,0.1-6.2,0.1l0-5.8c2.3,0,4.6-0.1,6.2-0.3
				c0.7,0,1.2,0.4,1.2,1.1v0.8 M48.6,415.7v-0.9c0-0.6,0.5-1.1,1.2-1.1c1.8,0.1,3.9,0.3,6.2,0.3l0,5.8c-2.1,0-4.2,0-6.2-0.1
				c-0.7-0.1-1.2-1.2-1.2-1.8"/>
		</g>
		<g id="g12878" transform="matrix(.95488 .55779 -.61350 .86818 618.66 131.41)">
			<path id="path12880" class="st7" d="M-132.1,430.8v1.3c0,0.8-0.6,1.5-1.5,1.7c-2.1,0-4.9,0.2-7.4,0.2l0-8.1
				c2.8,0,5.5-0.2,7.4-0.4c0.8,0,1.5,0.6,1.5,1.5v1.1 M-149.9,428.2V427c0-0.8,0.6-1.5,1.5-1.5c2.1,0.2,4.7,0.4,7.4,0.4l0,8.1
				c-2.5,0-5.1,0-7.4-0.2c-0.8-0.2-1.5-1.7-1.5-2.5"/>
			<path id="path12882" class="st0" d="M-133.6,430.5v0.9c0,0.6-0.5,1.1-1.2,1.2c-1.8,0-4.1,0.1-6.2,0.1l0-5.8
				c2.3,0,4.6-0.1,6.2-0.3c0.7,0,1.2,0.4,1.2,1.1v0.8 M-148.4,428.7v-0.9c0-0.6,0.5-1.1,1.2-1.1c1.8,0.1,3.9,0.3,6.2,0.3l0,5.8
				c-2.1,0-4.2,0-6.2-0.1c-0.7-0.1-1.2-1.2-1.2-1.8"/>
		</g>
		<g id="g12884" transform="matrix(.74342 .77974 -.85762 .67591 865.37 324.65)">
			<path id="path12886" class="st7" d="M-317.4,498.7v1.3c0,0.8-0.6,1.5-1.5,1.7c-2.1,0-4.9,0.2-7.4,0.2l0-8.1
				c2.8,0,5.5-0.2,7.4-0.4c0.8,0,1.5,0.6,1.5,1.5v1.1 M-335.3,496.2v-1.3c0-0.8,0.6-1.5,1.5-1.5c2.1,0.2,4.7,0.4,7.4,0.4l0,8.1
				c-2.5,0-5.1,0-7.4-0.2c-0.8-0.2-1.5-1.7-1.5-2.5"/>
			<path id="path12888" class="st0" d="M-319,498.5v0.9c0,0.6-0.5,1.1-1.2,1.2c-1.8,0-4.1,0.1-6.2,0.1l0-5.8c2.3,0,4.6-0.1,6.2-0.3
				c0.7,0,1.2,0.4,1.2,1.1v0.8 M-333.8,496.7v-0.9c0-0.6,0.5-1.1,1.2-1.1c1.8,0.1,3.9,0.3,6.2,0.3l0,5.8c-2.1,0-4.2,0-6.2-0.1
				c-0.7-0.1-1.2-1.2-1.2-1.8"/>
		</g>
		<g id="g12890" transform="matrix(.47175 .93856 -1.0323 .42891 1042.2 573.25)">
			<path id="path12892" class="st7" d="M-476.1,616.1v1.3c0,0.8-0.6,1.5-1.5,1.7c-2.1,0-4.9,0.2-7.4,0.2l0-8.1
				c2.8,0,5.5-0.2,7.4-0.4c0.8,0,1.5,0.6,1.5,1.5v1.1 M-494,613.6v-1.3c0-0.8,0.6-1.5,1.5-1.5c2.1,0.2,4.7,0.4,7.4,0.4l0,8.1
				c-2.5,0-5.1,0-7.4-0.2c-0.8-0.2-1.5-1.7-1.5-2.5"/>
			<path id="path12894" class="st0" d="M-477.7,615.9v0.9c0,0.6-0.5,1.1-1.2,1.2c-1.8,0-4.1,0.1-6.2,0.1l0-5.8
				c2.3,0,4.6-0.1,6.2-0.3c0.7,0,1.2,0.4,1.2,1.1v0.8 M-492.5,614.1v-0.9c0-0.6,0.5-1.1,1.2-1.1c1.8,0.1,3.9,0.3,6.2,0.3l0,5.8
				c-2.1,0-4.2,0-6.2-0.1c-0.7-0.1-1.2-1.2-1.2-1.8"/>
		</g>
		<g id="g12896" transform="matrix(.16188 1.0214 -1.1234 .14718 1134.9 857.07)">
			<path id="path12898" class="st7" d="M-595.3,773.5v1.3c0,0.8-0.6,1.5-1.5,1.7c-2.1,0-4.9,0.2-7.4,0.2l0-8.1
				c2.8,0,5.5-0.2,7.4-0.4c0.8,0,1.5,0.6,1.5,1.5v1.1 M-613.2,771v-1.3c0-0.8,0.6-1.5,1.5-1.5c2.1,0.2,4.7,0.4,7.4,0.4l0,8.1
				c-2.5,0-5.1,0-7.4-0.2c-0.8-0.2-1.5-1.7-1.5-2.5"/>
			<path id="path12900" class="st0" d="M-596.9,773.3v0.9c0,0.6-0.5,1.1-1.2,1.2c-1.8,0-4.1,0.1-6.2,0.1l0-5.8
				c2.3,0,4.6-0.1,6.2-0.3c0.7,0,1.2,0.4,1.2,1.1v0.8 M-611.7,771.4v-0.9c0-0.6,0.5-1.1,1.2-1.1c1.8,0.1,3.9,0.3,6.2,0.3l0,5.8
				c-2.1,0-4.2,0-6.2-0.1c-0.7-0.1-1.2-1.2-1.2-1.8"/>
		</g>
		<g id="g12902" transform="matrix(-.16110 1.0215 -1.1235 -.14647 1135.9 1153.1)">
			<path id="path12904" class="st7" d="M-665.4,958.1v1.3c0,0.8-0.6,1.5-1.5,1.7c-2.1,0-4.9,0.2-7.4,0.2l0-8.1
				c2.8,0,5.5-0.2,7.4-0.4c0.8,0,1.5,0.6,1.5,1.5v1.1 M-683.2,955.6v-1.3c0-0.8,0.6-1.5,1.5-1.5c2.1,0.2,4.7,0.4,7.4,0.4l0,8.1
				c-2.5,0-5.1,0-7.4-0.2c-0.8-0.2-1.5-1.7-1.5-2.5"/>
			<path id="path12906" class="st0" d="M-666.9,957.8v0.9c0,0.6-0.5,1.1-1.2,1.2c-1.8,0-4.1,0.1-6.2,0.1l0-5.8
				c2.3,0,4.6-0.1,6.2-0.3c0.7,0,1.2,0.4,1.2,1.1v0.8 M-681.7,956v-0.9c0-0.6,0.5-1.1,1.2-1.1c1.8,0.1,3.9,0.3,6.2,0.3l0,5.8
				c-2.1,0-4.2,0-6.2-0.1c-0.7-0.1-1.2-1.2-1.2-1.8"/>
		</g>
		<g id="g12908" transform="matrix(-.47103 .93886 -1.0326 -.42826 1045.1 1437.5)">
			<path id="path12910" class="st7" d="M-680.7,1154.9v1.3c0,0.8-0.6,1.5-1.5,1.7c-2.1,0-4.9,0.2-7.4,0.2l0-8.1
				c2.8,0,5.5-0.2,7.4-0.4c0.8,0,1.5,0.6,1.5,1.5v1.1 M-698.5,1152.4v-1.3c0-0.8,0.6-1.5,1.5-1.5c2.1,0.2,4.7,0.4,7.4,0.4l0,8.1
				c-2.5,0-5.1,0-7.4-0.2c-0.8-0.2-1.5-1.7-1.5-2.5"/>
			<path id="path12912" class="st0" d="M-682.2,1154.7v0.9c0,0.6-0.5,1.1-1.2,1.2c-1.8,0-4.1,0.1-6.2,0.1l0-5.8
				c2.3,0,4.6-0.1,6.2-0.3c0.7,0,1.2,0.4,1.2,1.1v0.8 M-697,1152.9v-0.9c0-0.6,0.5-1.1,1.2-1.1c1.8,0.1,3.9,0.3,6.2,0.3l0,5.8
				c-2.1,0-4.2,0-6.2-0.1c-0.7-0.1-1.2-1.2-1.2-1.8"/>
		</g>
		<g id="g12914" transform="matrix(-.74282 .78021 -.85814 -.67537 869.95 1687)">
			<path id="path12916" class="st7" d="M-639.8,1348.1v1.3c0,0.8-0.6,1.5-1.5,1.7c-2.1,0-4.9,0.2-7.4,0.2l0-8.1
				c2.8,0,5.5-0.2,7.4-0.4c0.8,0,1.5,0.6,1.5,1.5v1.1 M-657.6,1345.5v-1.3c0-0.8,0.6-1.5,1.5-1.5c2.1,0.2,4.7,0.4,7.4,0.4l0,8.1
				c-2.5,0-5.1,0-7.4-0.2c-0.8-0.2-1.5-1.7-1.5-2.5"/>
			<path id="path12918" class="st0" d="M-641.3,1347.8v0.9c0,0.6-0.5,1.1-1.2,1.2c-1.8,0-4.1,0.1-6.2,0.1l0-5.8
				c2.3,0,4.6-0.1,6.2-0.3c0.7,0,1.2,0.4,1.2,1.1v0.8 M-656.1,1346v-0.9c0-0.6,0.5-1.1,1.2-1.1c1.8,0.1,3.9,0.3,6.2,0.3l0,5.8
				c-2.1,0-4.2,0-6.2-0.1c-0.7-0.1-1.2-1.2-1.2-1.8"/>
		</g>
		<g id="g12920" transform="matrix(-.95446 .55839 -.61416 -.86779 624.54 1881.6)">
			<path id="path12922" class="st7" d="M-546.2,1521.9v1.3c0,0.8-0.6,1.5-1.5,1.7c-2.1,0-4.9,0.2-7.4,0.2l0-8.1
				c2.8,0,5.5-0.2,7.4-0.4c0.8,0,1.5,0.6,1.5,1.5v1.1 M-564,1519.4v-1.3c0-0.8,0.6-1.5,1.5-1.5c2.1,0.2,4.7,0.4,7.4,0.4l0,8.1
				c-2.5,0-5.1,0-7.4-0.2c-0.8-0.2-1.5-1.7-1.5-2.5"/>
			<path id="path12924" class="st0" d="M-547.7,1521.6v0.9c0,0.6-0.5,1.1-1.2,1.2c-1.8,0-4.1,0.1-6.2,0.1l0-5.8
				c2.3,0,4.6-0.1,6.2-0.3c0.7,0,1.2,0.4,1.2,1.1v0.8 M-562.5,1519.8v-0.9c0-0.6,0.5-1.1,1.2-1.1c1.8,0.1,3.9,0.3,6.2,0.3l0,5.8
				c-2.1,0-4.2,0-6.2-0.1c-0.7-0.1-1.2-1.2-1.2-1.8"/>
		</g>
		<g id="g12926" transform="matrix(-1.0888 .29135 -.32045 -.98993 328.78 2005.5)">
			<path id="path12928" class="st7" d="M-407.5,1662.3v1.3c0,0.8-0.6,1.5-1.5,1.7c-2.1,0-4.9,0.2-7.4,0.2l0-8.1
				c2.8,0,5.5-0.2,7.4-0.4c0.8,0,1.5,0.6,1.5,1.5v1.1 M-425.3,1659.8v-1.3c0-0.8,0.6-1.5,1.5-1.5c2.1,0.2,4.7,0.4,7.4,0.4l0,8.1
				c-2.5,0-5.1,0-7.4-0.2c-0.8-0.2-1.5-1.7-1.5-2.5"/>
			<path id="path12930" class="st0" d="M-409,1662.1v0.9c0,0.6-0.5,1.1-1.2,1.2c-1.8,0-4.1,0.1-6.2,0.1l0-5.8c2.3,0,4.6-0.1,6.2-0.3
				c0.7,0,1.2,0.4,1.2,1.1v0.8 M-423.8,1660.3v-0.9c0-0.6,0.5-1.1,1.2-1.1c1.8,0.1,3.9,0.3,6.2,0.3l0,5.8c-2.1,0-4.2,0-6.2-0.1
				c-0.7-0.1-1.2-1.2-1.2-1.8"/>
		</g>
		<g id="g12932" transform="matrix(-1.135 .00072019 -.00079212 -1.0319 6.6183 2048.7)">
			<path id="path12934" class="st7" d="M-234.8,1758.1v1.3c0,0.8-0.6,1.5-1.5,1.7c-2.1,0-4.9,0.2-7.4,0.2l0-8.1
				c2.8,0,5.5-0.2,7.4-0.4c0.8,0,1.5,0.6,1.5,1.5v1.1 M-252.6,1755.6v-1.3c0-0.8,0.6-1.5,1.5-1.5c2.1,0.2,4.7,0.4,7.4,0.4l0,8.1
				c-2.5,0-5.1,0-7.4-0.2c-0.8-0.2-1.5-1.7-1.5-2.5"/>
			<path id="path12936" class="st0" d="M-236.3,1757.8v0.9c0,0.6-0.5,1.1-1.2,1.2c-1.8,0-4.1,0.1-6.2,0.1l0-5.8
				c2.3,0,4.6-0.1,6.2-0.3c0.7,0,1.2,0.4,1.2,1.1v0.8 M-251.1,1756v-0.9c0-0.6,0.5-1.1,1.2-1.1c1.8,0.1,3.9,0.3,6.2,0.3l0,5.8
				c-2.1,0-4.2,0-6.2-0.1c-0.7-0.1-1.2-1.2-1.2-1.8"/>
		</g>
		<g id="g12938" transform="matrix(-1.0918 -.28208 .31025 -.99262 -313.06 2009.9)">
			<path id="path12940" class="st7" d="M-51.6,1801.9v1.3c0,0.8-0.6,1.5-1.5,1.7c-2.1,0-4.9,0.2-7.4,0.2l0-8.1
				c2.8,0,5.5-0.2,7.4-0.4c0.8,0,1.5,0.6,1.5,1.5v1.1 M-69.4,1799.4v-1.3c0-0.8,0.6-1.5,1.5-1.5c2.1,0.2,4.7,0.4,7.4,0.4l0,8.1
				c-2.5,0-5.1,0-7.4-0.2c-0.8-0.2-1.5-1.7-1.5-2.5"/>
			<path id="path12942" class="st0" d="M-53.1,1801.7v0.9c0,0.6-0.5,1.1-1.2,1.2c-1.8,0-4.1,0.1-6.2,0.1l0-5.8
				c2.3,0,4.6-0.1,6.2-0.3c0.7,0,1.2,0.4,1.2,1.1v0.8 M-67.9,1799.9v-0.9c0-0.6,0.5-1.1,1.2-1.1c1.8,0.1,3.9,0.3,6.2,0.3l0,5.8
				c-2.1,0-4.2,0-6.2-0.1c-0.7-0.1-1.2-1.2-1.2-1.8"/>
		</g>
		<g id="g12944" transform="matrix(-.96016 -.55025 .60521 -.87297 -610.8 1890)">
			<path id="path12946" class="st7" d="M146,1791.7v1.3c0,0.8-0.6,1.5-1.5,1.7c-2.1,0-4.9,0.2-7.4,0.2l0-8.1c2.8,0,5.5-0.2,7.4-0.4
				c0.8,0,1.5,0.6,1.5,1.5v1.1 M128.2,1789.2v-1.3c0-0.8,0.6-1.5,1.5-1.5c2.1,0.2,4.7,0.4,7.4,0.4l0,8.1c-2.5,0-5.1,0-7.4-0.2
				c-0.8-0.2-1.5-1.7-1.5-2.5"/>
			<path id="path12948" class="st0" d="M144.5,1791.5v0.9c0,0.6-0.5,1.1-1.2,1.2c-1.8,0-4.1,0.1-6.2,0.1l0-5.8
				c2.3,0,4.6-0.1,6.2-0.3c0.7,0,1.2,0.4,1.2,1.1v0.8 M129.7,1789.6v-0.9c0-0.6,0.5-1.1,1.2-1.1c1.8,0.1,3.9,0.3,6.2,0.3l0,5.8
				c-2.1,0-4.2,0-6.2-0.1c-0.7-0.1-1.2-1.2-1.2-1.8"/>
		</g>
		<g id="g12950" transform="matrix(-.75081 -.77386 .85115 -.68264 -859.34 1698.7)">
			<path id="path12952" class="st7" d="M332.7,1726.2v1.3c0,0.8-0.6,1.5-1.5,1.7c-2.1,0-4.9,0.2-7.4,0.2l0-8.1
				c2.8,0,5.5-0.2,7.4-0.4c0.8,0,1.5,0.6,1.5,1.5v1.1 M314.9,1723.7v-1.3c0-0.8,0.6-1.5,1.5-1.5c2.1,0.2,4.7,0.4,7.4,0.4l0,8.1
				c-2.5,0-5.1,0-7.4-0.2c-0.8-0.2-1.5-1.7-1.5-2.5"/>
			<path id="path12954" class="st0" d="M331.2,1726v0.9c0,0.6-0.5,1.1-1.2,1.2c-1.8,0-4.1,0.1-6.2,0.1l0-5.8c2.3,0,4.6-0.1,6.2-0.3
				c0.7,0,1.2,0.4,1.2,1.1v0.8 M316.4,1724.2v-0.9c0-0.6,0.5-1.1,1.2-1.1c1.8,0.1,3.9,0.3,6.2,0.3l0,5.8c-2.1,0-4.2,0-6.2-0.1
				c-0.7-0.1-1.2-1.2-1.2-1.8"/>
		</g>
		<g id="g12956" transform="matrix(-.48067 -.93481 1.0282 -.43702 -1038.6 1451.5)">
			<path id="path12958" class="st7" d="M493.4,1610.8v1.3c0,0.8-0.6,1.5-1.5,1.7c-2.1,0-4.9,0.2-7.4,0.2l0-8.1
				c2.8,0,5.5-0.2,7.4-0.4c0.8,0,1.5,0.6,1.5,1.5v1.1 M475.6,1608.3v-1.3c0-0.8,0.6-1.5,1.5-1.5c2.1,0.2,4.7,0.4,7.4,0.4l0,8.1
				c-2.5,0-5.1,0-7.4-0.2c-0.8-0.2-1.5-1.7-1.5-2.5"/>
			<path id="path12960" class="st0" d="M491.9,1610.6v0.9c0,0.6-0.5,1.1-1.2,1.2c-1.8,0-4.1,0.1-6.2,0.1l0-5.8
				c2.3,0,4.6-0.1,6.2-0.3c0.7,0,1.2,0.4,1.2,1.1v0.8 M477.1,1608.7v-0.9c0-0.6,0.5-1.1,1.2-1.1c1.8,0.1,3.9,0.3,6.2,0.3l0,5.8
				c-2.1,0-4.2,0-6.2-0.1c-0.7-0.1-1.2-1.2-1.2-1.8"/>
		</g>
		<g id="g12962" transform="matrix(-.17160 -1.0201 1.1219 -.15602 -1133.9 1168.4)">
			<path id="path12964" class="st7" d="M615.1,1454.8v1.3c0,0.8-0.6,1.5-1.5,1.7c-2.1,0-4.9,0.2-7.4,0.2l0-8.1
				c2.8,0,5.5-0.2,7.4-0.4c0.8,0,1.5,0.6,1.5,1.5v1.1 M597.3,1452.3v-1.3c0-0.8,0.6-1.5,1.5-1.5c2.1,0.2,4.7,0.4,7.4,0.4l0,8.1
				c-2.5,0-5.1,0-7.4-0.2c-0.8-0.2-1.5-1.7-1.5-2.5"/>
			<path id="path12966" class="st0" d="M613.6,1454.6v0.9c0,0.6-0.5,1.1-1.2,1.2c-1.8,0-4.1,0.1-6.2,0.1l0-5.8
				c2.3,0,4.6-0.1,6.2-0.3c0.7,0,1.2,0.4,1.2,1.1v0.8 M598.8,1452.7v-0.9c0-0.6,0.5-1.1,1.2-1.1c1.8,0.1,3.9,0.3,6.2,0.3l0,5.8
				c-2.1,0-4.2,0-6.2-0.1c-0.7-0.1-1.2-1.2-1.2-1.8"/>
		</g>
		<g id="g12968" transform="matrix(.15136 -1.0227 1.1248 .13762 -1137.7 872.37)">
			<path id="path12970" class="st7" d="M688,1270.8v1.3c0,0.8-0.6,1.5-1.5,1.7c-2.1,0-4.9,0.2-7.4,0.2l0-8.1c2.8,0,5.5-0.2,7.4-0.4
				c0.8,0,1.5,0.6,1.5,1.5v1.1 M670.2,1268.3v-1.3c0-0.8,0.6-1.5,1.5-1.5c2.1,0.2,4.7,0.4,7.4,0.4l0,8.1c-2.5,0-5.1,0-7.4-0.2
				c-0.8-0.2-1.5-1.7-1.5-2.5"/>
			<path id="path12972" class="st0" d="M686.4,1270.6v0.9c0,0.6-0.5,1.1-1.2,1.2c-1.8,0-4.1,0.1-6.2,0.1l0-5.8
				c2.3,0,4.6-0.1,6.2-0.3c0.7,0,1.2,0.4,1.2,1.1v0.8 M671.6,1268.8v-0.9c0-0.6,0.5-1.1,1.2-1.1c1.8,0.1,3.9,0.3,6.2,0.3l0,5.8
				c-2.1,0-4.2,0-6.2-0.1c-0.7-0.1-1.2-1.2-1.2-1.8"/>
		</g>
		<g id="g12974" transform="matrix(.46207 -.94253 1.0367 .42011 -1049.7 587.33)">
			<path id="path12976" class="st7" d="M706,1073.8v1.3c0,0.8-0.6,1.5-1.5,1.7c-2.1,0-4.9,0.2-7.4,0.2l0-8.1c2.8,0,5.5-0.2,7.4-0.4
				c0.8,0,1.5,0.6,1.5,1.5v1.1 M688.2,1071.3v-1.3c0-0.8,0.6-1.5,1.5-1.5c2.1,0.2,4.7,0.4,7.4,0.4l0,8.1c-2.5,0-5.1,0-7.4-0.2
				c-0.8-0.2-1.5-1.7-1.5-2.5"/>
			<path id="path12978" class="st0" d="M704.5,1073.5v0.9c0,0.6-0.5,1.1-1.2,1.2c-1.8,0-4.1,0.1-6.2,0.1l0-5.8
				c2.3,0,4.6-0.1,6.2-0.3c0.7,0,1.2,0.4,1.2,1.1v0.8 M689.7,1071.7v-0.9c0-0.6,0.5-1.1,1.2-1.1c1.8,0.1,3.9,0.3,6.2,0.3l0,5.8
				c-2.1,0-4.2,0-6.2-0.1c-0.7-0.1-1.2-1.2-1.2-1.8"/>
		</g>
		<g id="g12980" transform="matrix(.73536 -.78603 .86454 .66859 -876.89 336.39)">
			<path id="path12982" class="st7" d="M667.9,879.7v1.3c0,0.8-0.6,1.5-1.5,1.7c-2.1,0-4.9,0.2-7.4,0.2l0-8.1c2.8,0,5.5-0.2,7.4-0.4
				c0.8,0,1.5,0.6,1.5,1.5v1.1 M650,877.1v-1.3c0-0.8,0.6-1.5,1.5-1.5c2.1,0.2,4.7,0.4,7.4,0.4l0,8.1c-2.5,0-5.1,0-7.4-0.2
				c-0.8-0.2-1.5-1.7-1.5-2.5"/>
			<path id="path12984" class="st0" d="M666.3,879.4v0.9c0,0.6-0.5,1.1-1.2,1.2c-1.8,0-4.1,0.1-6.2,0.1l0-5.8c2.3,0,4.6-0.1,6.2-0.3
				c0.7,0,1.2,0.4,1.2,1.1v0.8 M651.5,877.6v-0.9c0-0.6,0.5-1.1,1.2-1.1c1.8,0.1,3.9,0.3,6.2,0.3l0,5.8c-2.1,0-4.2,0-6.2-0.1
				c-0.7-0.1-1.2-1.2-1.2-1.8"/>
		</g>
		<g id="g12986" transform="matrix(.94910 -.56588 .62240 .86292 -633.34 139.86)">
			<path id="path12988" class="st7" d="M576.5,704.1v1.3c0,0.8-0.6,1.5-1.5,1.7c-2.1,0-4.9,0.2-7.4,0.2l0-8.1c2.8,0,5.5-0.2,7.4-0.4
				c0.8,0,1.5,0.6,1.5,1.5v1.1 M558.7,701.6v-1.3c0-0.8,0.6-1.5,1.5-1.5c2.1,0.2,4.7,0.4,7.4,0.4l0,8.1c-2.5,0-5.1,0-7.4-0.2
				c-0.8-0.2-1.5-1.7-1.5-2.5"/>
			<path id="path12990" class="st0" d="M575,703.9v0.9c0,0.6-0.5,1.1-1.2,1.2c-1.8,0-4.1,0.1-6.2,0.1l0-5.8c2.3,0,4.6-0.1,6.2-0.3
				c0.7,0,1.2,0.4,1.2,1.1v0.8 M560.2,702v-0.9c0-0.6,0.5-1.1,1.2-1.1c1.8,0.1,3.9,0.3,6.2,0.3l0,5.8c-2.1,0-4.2,0-6.2-0.1
				c-0.7-0.1-1.2-1.2-1.2-1.8"/>
		</g>
		<g id="g12992" transform="matrix(1.086 -.29991 .32987 .98737 -338.77 13.655)">
			<path id="path12994" class="st7" d="M439.5,561.4v1.3c0,0.8-0.6,1.5-1.5,1.7c-2.1,0-4.9,0.2-7.4,0.2l0-8.1c2.8,0,5.5-0.2,7.4-0.4
				c0.8,0,1.5,0.6,1.5,1.5v1.1 M421.7,558.9v-1.3c0-0.8,0.6-1.5,1.5-1.5c2.1,0.2,4.7,0.4,7.4,0.4l0,8.1c-2.5,0-5.1,0-7.4-0.2
				c-0.8-0.2-1.5-1.7-1.5-2.5"/>
			<path id="path12996" class="st0" d="M438,561.2v0.9c0,0.6-0.5,1.1-1.2,1.2c-1.8,0-4.1,0.1-6.2,0.1l0-5.8c2.3,0,4.6-0.1,6.2-0.3
				c0.7,0,1.2,0.4,1.2,1.1v0.8 M423.1,559.3v-0.9c0-0.6,0.5-1.1,1.2-1.1c1.8,0.1,3.9,0.3,6.2,0.3l0,5.8c-2.1,0-4.2,0-6.2-0.1
				c-0.7-0.1-1.2-1.2-1.2-1.8"/>
		</g>
		<g id="g12998" transform="matrix(1.1349 -.0096543 .010618 1.0319 -17.033 -32.001)">
			<path id="path13000" class="st7" d="M267.8,463.1v1.3c0,0.8-0.6,1.5-1.5,1.7c-2.1,0-4.9,0.2-7.4,0.2l0-8.1c2.8,0,5.5-0.2,7.4-0.4
				c0.8,0,1.5,0.6,1.5,1.5v1.1 M250,460.5v-1.3c0-0.8,0.6-1.5,1.5-1.5c2.1,0.2,4.7,0.4,7.4,0.4l0,8.1c-2.5,0-5.1,0-7.4-0.2
				c-0.8-0.2-1.5-1.7-1.5-2.5"/>
			<path id="path13002" class="st0" d="M266.3,462.8v0.9c0,0.6-0.5,1.1-1.2,1.2c-1.8,0-4.1,0.1-6.2,0.1l0-5.8c2.3,0,4.6-0.1,6.2-0.3
				c0.7,0,1.2,0.4,1.2,1.1v0.8 M251.5,461v-0.9c0-0.6,0.5-1.1,1.2-1.1c1.8,0.1,3.9,0.3,6.2,0.3l0,5.8c-2.1,0-4.2,0-6.2-0.1
				c-0.7-0.1-1.2-1.2-1.2-1.8"/>
		</g>
	</g>
</g>
</svg>
