<?xml version="1.0" encoding="utf-8"?>
<!-- Generator: Adobe Illustrator 22.1.0, SVG Export Plug-In . SVG Version: 6.00 Build 0)  -->
<svg version="1.1" id="Layer_3" xmlns="http://www.w3.org/2000/svg" xmlns:xlink="http://www.w3.org/1999/xlink" x="0px" y="0px"
	 viewBox="0 0 640 480" style="enable-background:new 0 0 640 480;" xml:space="preserve">
<style type="text/css">
	.st0{fill:#FFFFFF;}
	.st1{fill:#DA251D;}
	.st2{fill:#2B7338;}
	.st3{fill:#FFCC00;}
</style>
<path class="st0" d="M0,0h638.6v479.7H0"/>
<path class="st1" d="M59.6,326.5H640V480H59.6"/>
<path class="st2" d="M59.6,0H640v283.3H59.6"/>
<path class="st3" d="M51.2,349.6c10.6-17.3-1.9-34.9-7.8-41.7l-17.2-16.8c-5.4-6.3-16.8-22.3-7.5-37.9c2.9-4.8,7.5-7.8,12.9-8.6
	c5.2-0.8,10.3,0.8,14.1,4.3c5.8,5.4,9.2,15,4,22.2c-2.5,3.4-6.3,5.4-10.2,5.3c-3.4-0.1-6.2-1.7-8-4.4c-1.7-2.6-2.1-5.5-1.1-8
	c0.8-2.3,2.7-3.9,4.9-4.5c0.9-0.2,1.4-1,1.2-1.9c-0.2-0.9-1-1.4-1.9-1.2c-3.2,0.8-5.9,3.2-7.1,6.4c-1.4,3.6-0.8,7.5,1.4,10.9
	c2.3,3.6,6.1,5.8,10.5,5.9c5,0.1,9.8-2.3,12.9-6.6c5.5-7.6,3.6-19-4.4-26.4c-3.4-3.2-7.7-5-12.2-5.4l17.2-1.4l-14.6-1.2
	c5.2-1.4,9.8-4.9,12.6-9.8c10.5-17.3-2-34.9-7.8-41.7L43,187l-17.1-16.7c-5.4-6.2-16.8-22.3-7.5-37.9c2.9-4.8,7.5-7.9,12.9-8.6
	c5.2-0.7,10.3,0.9,14.1,4.3c5.8,5.4,9.1,15,3.9,22.2c-2.5,3.4-6.3,5.4-10.2,5.3c-3.3-0.1-6.2-1.7-7.9-4.4c-1.7-2.5-2.1-5.4-1.1-8
	c0.9-2.2,2.7-3.9,4.9-4.5c0.9-0.2,1.4-1.1,1.2-1.9c-0.2-0.9-1.1-1.4-1.9-1.2c-3.2,0.8-5.9,3.2-7.1,6.4c-1.4,3.5-0.8,7.5,1.4,10.9
	c2.3,3.6,6.2,5.7,10.5,5.8c5,0.1,9.8-2.3,12.9-6.6c5.5-7.6,3.6-19-4.4-26.4c-2.4-2.2-5.3-3.8-8.5-4.6l13.8-1.1l-12.6-1.1
	c4.5-1.7,8.3-4.9,10.8-9.1c10.6-17.3-1.9-34.9-7.8-41.7L26.1,51.3C20.7,45,9.3,29,18.6,13.4c2.9-4.8,7.5-7.8,12.9-8.6
	C36.7,4,41.8,5.6,45.6,9c5.8,5.4,9.2,15,4,22.2c-2.5,3.4-6.3,5.4-10.2,5.3c-3.4-0.1-6.2-1.7-8-4.4c-1.7-2.6-2.1-5.5-1.1-8
	c0.8-2.3,2.7-3.9,4.9-4.5c0.9-0.2,1.4-1,1.2-1.9c-0.2-0.9-1-1.4-1.9-1.2c-3.2,0.8-5.9,3.2-7.1,6.4c-1.4,3.6-0.8,7.5,1.4,10.9
	c2.3,3.6,6.1,5.8,10.5,5.9c5,0.1,9.8-2.3,12.9-6.6c5.5-7.6,3.6-19-4.4-26.4c-4.5-4.2-10.6-6.1-16.7-5.2c-6.3,0.9-11.8,4.6-15.2,10.2
	c-10.5,17.4,2,35,7.8,41.7L41,70.3c5.5,6.3,16.9,22.4,7.5,37.9c-2.9,4.7-7.6,7.9-12.9,8.7c-5.1,0.8-10.1-0.7-13.8-4.1
	c-6-5.6-9.3-15-4.1-22.2c2.5-3.4,6.3-5.4,10.2-5.3c3.3,0.1,6.2,1.7,7.9,4.4c1.7,2.6,2,5.5,1,8.1c-0.8,2.2-2.6,3.8-4.8,4.3
	c-0.9,0.2-1.4,1-1.2,1.9s1,1.4,1.9,1.2c3.2-0.8,5.7-3.1,7-6.3c1.4-3.5,0.9-7.5-1.3-11c-2.3-3.6-6.1-5.8-10.5-5.9
	c-5-0.1-9.8,2.3-12.9,6.6c-5.6,7.7-3.7,18.8,4.5,26.4c1.9,1.8,4.2,3.2,6.6,4l-11.6,1l14.2,1.2c-5.3,1.4-9.9,4.8-12.8,9.6
	c-10.4,17.4,2,34.9,7.8,41.7l0.1,0.1l17.1,16.7c5.4,6.3,16.9,22.4,7.5,37.9c-2.8,4.8-7.5,8-12.9,8.8c-5.1,0.7-10.1-0.8-13.8-4.1
	c-6-5.6-9.3-15-4.1-22.2c2.5-3.4,6.3-5.4,10.2-5.3c3.3,0.1,6.2,1.7,7.9,4.4c1.7,2.6,2,5.5,1,8.1c-0.9,2.2-2.6,3.8-4.8,4.3
	c-0.9,0.2-1.4,1.1-1.2,1.9c0.2,0.9,1.1,1.4,1.9,1.2c3.2-0.8,5.8-3.1,7-6.3c1.4-3.5,0.9-7.6-1.3-11c-2.3-3.6-6.2-5.7-10.5-5.9
	c-5-0.1-9.8,2.3-12.9,6.6c-5.6,7.7-3.7,18.8,4.5,26.4c2.5,2.2,5.4,3.8,8.6,4.6l-13.5,1.1l17.7,1.5c-0.3,0-0.7,0.1-1,0.1
	c-6.3,0.9-11.8,4.6-15.2,10.2c-10.5,17.4,2,35,7.8,41.7L41,310.1c5.5,6.3,16.9,22.4,7.5,37.9c-2.9,4.7-7.6,7.9-12.9,8.7
	c-5.1,0.8-10.1-0.7-13.8-4.1c-6-5.6-9.3-15-4.1-22.2c2.5-3.4,6.3-5.4,10.2-5.3c3.3,0.1,6.2,1.7,7.9,4.4c1.7,2.6,2,5.5,1,8.1
	c-0.8,2.2-2.6,3.8-4.8,4.3c-0.9,0.2-1.4,1-1.2,1.9c0.2,0.9,1,1.4,1.9,1.2c3.2-0.8,5.7-3.1,7-6.3c1.4-3.5,0.9-7.5-1.3-11
	c-2.3-3.6-6.1-5.8-10.5-5.9c-5-0.1-9.8,2.3-12.9,6.6c-5.6,7.7-3.7,18.8,4.5,26.4c1.9,1.8,4,3.1,6.4,3.9l-11.4,1l12.9,1.1
	c-4.7,1.6-8.8,4.8-11.5,9.2c-10.4,17.4,2,34.9,7.8,41.7l0.1,0.1l17.1,16.7c5.4,6.3,16.9,22.4,7.5,37.9c-2.8,4.8-7.5,8-12.9,8.8
	c-5.1,0.7-10.1-0.8-13.8-4.1c-6-5.6-9.3-15-4.1-22.2c2.5-3.4,6.3-5.4,10.2-5.3c3.3,0.1,6.2,1.7,7.9,4.4c1.7,2.6,2,5.5,1,8.1
	c-0.9,2.2-2.6,3.8-4.8,4.3c-0.9,0.2-1.4,1.1-1.2,1.9c0.2,0.9,1.1,1.4,1.9,1.2c3.2-0.8,5.8-3.1,7-6.3c1.4-3.5,0.9-7.6-1.3-11
	c-2.3-3.6-6.2-5.7-10.5-5.9c-5-0.1-9.8,2.3-12.9,6.6c-5.6,7.7-3.7,18.8,4.5,26.4c4.4,4,10.4,5.8,16.4,5c6.3-0.9,11.8-4.7,15.1-10.3
	c10.5-17.3-2-34.9-7.8-41.7l-0.1-0.1l-17.1-16.7c-5.4-6.2-16.8-22.3-7.5-37.9c2.9-4.8,7.5-7.9,12.9-8.6c5.2-0.7,10.3,0.9,14.1,4.3
	c5.8,5.4,9.1,15,3.9,22.2c-2.5,3.4-6.3,5.4-10.2,5.3c-3.3-0.1-6.2-1.7-7.9-4.4c-1.7-2.5-2.1-5.4-1.1-8c0.9-2.2,2.7-3.9,4.9-4.5
	c0.9-0.2,1.4-1.1,1.2-1.9s-1.1-1.4-1.9-1.2c-3.2,0.8-5.9,3.2-7.1,6.4c-1.4,3.5-0.8,7.5,1.4,10.9c2.3,3.6,6.2,5.7,10.5,5.8
	c5,0.1,9.8-2.3,12.9-6.6c5.5-7.6,3.6-19-4.4-26.4c-2-1.9-4.5-3.3-7.2-4.2l12.5-1l-12.3-1C45,357,48.7,353.8,51.2,349.6z"/>
</svg>
