<svg width="100px" height="82px" viewBox="0 0 100 82" version="1.1" xmlns="http://www.w3.org/2000/svg" xmlns:xlink="http://www.w3.org/1999/xlink">
    <g id="Page-1" stroke="none" stroke-width="1" fill="none" fill-rule="evenodd" opacity="0.500021798">
        <g id="Desktop-/-Our-Nature-/-The-Source" transform="translate(-270.000000, -2982.000000)" fill="#FFC900" fill-rule="nonzero">
            <path d="M292.59322,3064 C303.525424,3064 311.90678,3055.29204 311.90678,3044.76991 C311.90678,3033.88496 304.618644,3026.26549 294.415254,3026.26549 C292.59322,3026.26549 290.042373,3026.62832 289.677966,3026.62832 C290.771186,3015.0177 301.338983,3000.50442 313,2992.88496 L299.516949,2982 C282.754237,2993.97345 270,3014.29204 270,3036.42478 C270,3054.20354 280.567797,3064 292.59322,3064 Z M349.59322,3064 C360.525424,3064 369.271186,3055.29204 369.271186,3044.76991 C369.271186,3033.88496 361.618644,3026.26549 351.415254,3026.26549 C349.59322,3026.26549 347.042373,3026.62832 346.677966,3026.62832 C348.135593,3015.0177 358.338983,3000.50442 370,2992.88496 L356.516949,2982 C339.754237,2993.97345 327,3014.29204 327,3036.42478 C327,3054.20354 337.567797,3064 349.59322,3064 Z" id="“"></path>
        </g>
    </g>
</svg>