<svg width="640" height="480" viewBox="0 0 640 480" fill="none" xmlns="http://www.w3.org/2000/svg">
<g clip-path="url(#clip0_4336_123281)">
<rect width="640" height="480" fill="white"/>
<g clip-path="url(#clip1_4336_123281)">
<path d="M642 24H-3V456H642V24Z" fill="white"/>
<path fill-rule="evenodd" clip-rule="evenodd" d="M298.254 -1V215.943H-3V264.057H298.254V481H340.746V264.057H642V215.943H340.746V-1H298.254V-1Z" fill="#D81921"/>
<path fill-rule="evenodd" clip-rule="evenodd" d="M115.914 156.505C127.075 161.675 129.803 168.484 134.732 173.914C139.66 179.345 147.009 191.027 161.303 187.077C161.751 184.152 163.597 176.083 168.987 172.433C172.318 170.401 176.38 167.497 177.12 162.56C183.034 164.041 197.845 165.225 198.56 157.376C198.807 154.661 196.484 150.501 198.968 147.638C199.529 147.655 202.672 147.718 203.496 147.333C204.359 146.313 203.507 142.601 202.883 141.777L202.889 141.742C204.365 141.608 208.172 138.124 203.489 135.655C202.254 134.201 202.471 133.013 202.475 131.674C203.248 131.684 205.15 131.662 205.428 131.644C210.363 131.625 209.729 128.436 208.308 125.041C207.322 122.82 201.764 112.206 200.778 110.725C199.793 109.244 199.793 108.504 200.532 107.023C201.271 105.542 201.025 103.073 200.532 101.345C200.039 99.6176 199.053 96.9024 199.793 96.1619C200.532 95.4214 200.285 92.9531 200.039 92.4594C199.793 91.9658 199.793 90.7316 199.793 90.238C199.793 89.7443 199.546 88.5102 198.807 88.0165C198.067 87.5228 197.575 85.795 198.067 85.3013C198.56 84.8076 197.821 81.352 197.082 81.1051C196.342 80.8583 194.864 80.3646 194.124 78.6368C194.212 76.1992 192.3 73.4328 191.167 72.2192C190.428 71.4787 190.674 69.0103 190.674 69.0103L188.506 69.0601C188.27 68.9812 186.485 66.542 184.76 66.0484C183.034 65.5547 179.091 63.5801 179.091 63.5801L176.38 60.6181L173.916 61.8522C173.916 61.8522 171.944 61.1117 170.219 60.8649C168.494 60.6181 164.798 59.3839 163.565 57.4092C162.333 55.4345 162.58 59.7593 162.54 59.9959C162.383 60.0353 160.362 58.8902 156.911 59.1371C153.461 59.3839 149.518 60.8649 148.286 60.3712C147.054 59.8776 145.822 61.3586 145.822 61.3586C145.822 61.3586 143.357 62.8396 141.386 62.8396C139.414 62.8396 137.689 62.8396 137.689 62.8396L137.443 64.5674C137.443 64.5674 133.746 65.841 132.021 66.5815C130.296 67.3219 128.817 68.2698 126.599 68.5167C124.381 68.7635 123.642 69.504 123.642 69.504L124.628 71.4787C124.628 71.4787 121.966 72.022 121.177 74.6875C119.699 76.6622 117.727 79.871 116.248 80.1178C114.77 80.3646 113.784 81.1051 113.784 81.1051L115.756 83.5735C115.756 83.5735 115.263 84.314 114.277 85.3013C113.291 86.2887 111.32 88.0165 111.32 88.0165L112.552 90.238C112.552 90.238 112.552 90.7316 112.305 91.9658C112.059 93.1999 112.059 95.4214 110.827 95.9151C109.594 96.4088 109.595 97.8898 109.595 97.8898C109.595 97.8898 109.348 98.1366 110.827 98.6303C112.305 99.124 113.291 99.124 112.552 100.111C111.812 101.099 110.58 102.826 110.58 102.826C110.58 102.826 111.812 103.567 113.045 103.814C114.277 104.061 115.509 104.061 115.509 104.061C115.509 104.061 114.523 108.75 113.538 109.491C112.552 110.231 115.016 110.725 116.495 109.985C117.974 109.244 117.05 112.206 116.064 112.453C115.078 112.7 116.422 113.045 117.58 113.057C118.566 112.811 119.834 112.983 119.268 114.44C118.528 116.414 117.727 117.39 119.699 118.377C121.67 119.364 123.457 123.807 122.471 125.288C121.485 126.769 120.931 128.991 120.931 128.991L125.613 129.238C125.613 129.238 125.934 129.978 124.701 131.212C123.469 132.446 122.237 133.853 122.41 134.199C122.372 134.733 126.118 134.516 126.081 135.05C122.894 150.828 115.325 155.254 115.314 156.085L115.914 156.505L115.914 156.505Z" fill="black" stroke="black" stroke-width="0.968759"/>
<path fill-rule="evenodd" clip-rule="evenodd" d="M194.436 80.9261C196.079 82.1599 197.516 84.2161 196.079 85.4499C194.231 87.0948 193.41 87.7117 193.41 87.7117C193.41 87.7117 196.695 86.6836 197.31 87.9173C197.926 89.1511 198.645 91.0276 197.31 91.4129C196.284 92.0298 194.026 93.2636 194.026 93.2636C194.026 93.2636 199.158 92.6467 197.926 92.8523C198.542 94.4973 199.158 97.376 195.873 98.6098C192.588 99.8435 182.324 103.545 180.476 104.573C178.628 105.601 174.522 106.218 172.469 106.218C170.416 106.218 162.819 106.629 164.052 106.629L168.569 107.863C169.339 107.94 159.227 111.306 157.738 110.999C156.943 109.147 146.602 99.4323 140.853 111.358C140.237 114.032 142.29 118.144 144.343 118.967C146.396 119.789 147.423 120.817 148.244 123.079C149.065 125.341 151.168 129.376 153.427 129.043C156.533 127.012 157.893 127.192 156.456 128.837C154.865 131.099 151.144 131.202 149.27 128.425C147.705 126.498 146.295 121.512 143.111 120.2C141.469 119.583 139.416 115.677 139.416 115.677C139.416 115.677 136.542 115.471 135.31 116.705C134.078 117.938 130.999 117.938 129.151 117.733C127.303 117.527 124.198 116.834 125.225 116.834C126.251 116.834 122.375 116.705 121.144 116.911C119.912 117.116 120.323 113.826 122.376 112.181C124.429 110.536 130.178 107.863 131.409 106.218C132.641 104.573 141.469 99.6379 143.933 99.4323C146.396 99.2267 149.476 97.5817 149.476 97.5817C149.476 97.5817 144.856 97.5049 147.114 97.0937C149.372 96.6825 153.787 94.9086 156.045 94.0861C158.304 93.2636 160.151 93.2636 162.615 93.2636C165.078 93.2636 181.433 89.2516 185.514 86.7574C188.594 85.7293 170.904 90.8732 168.851 91.0789C165.361 91.593 164.257 90.8989 170.006 88.1229C172.469 86.6836 183.441 80.9209 192.222 78.5132C193.121 79.4135 192.794 79.6924 194.436 80.9261V80.9261Z" fill="white" stroke="black" stroke-width="0.121095"/>
<path d="M149.607 114.777C149.527 114.787 149.196 114.845 148.983 115.068C148.748 115.372 148.548 115.645 148.429 115.939C148.342 116.331 148.227 116.655 148.291 117.029C148.423 117.394 148.602 117.654 148.845 117.9C149.119 118.239 149.319 118.411 149.607 118.626C149.928 118.779 150.236 119.075 150.507 119.207C150.637 119.384 150.972 119.514 151.131 119.716C151.315 119.964 151.458 120.087 151.477 120.442C151.597 120.795 151.637 121.229 151.685 121.604C151.753 122.016 151.85 122.403 151.893 122.766C152.066 123.077 152.255 123.236 152.655 123.347C152.986 123.406 153.328 123.419 153.694 123.419C153.901 123.221 154.254 122.997 154.456 122.766C154.456 122.572 154.456 122.378 154.456 122.185" stroke="white" stroke-width="2.45079" stroke-linecap="round"/>
<path fill-rule="evenodd" clip-rule="evenodd" d="M155.38 113.157C153.608 110.302 142.515 105.055 145.211 115.24C145.827 116.321 144.672 116.784 144.364 116.012C141.513 103.975 153.762 108.99 155.688 112.154C156.459 113.466 155.38 113.234 155.38 113.157Z" fill="white" stroke="white" stroke-width="0.968759"/>
<path d="M195.363 95.7957C191.203 95.7185 186.812 95.95 183.422 98.1105C180.033 100.271 177.028 100.888 173.407 100.888C169.786 100.888 167.938 100.966 167.938 100.966" stroke="black" stroke-width="1.93752" stroke-linecap="round"/>
<path d="M144.166 102.051C137.214 104.746 135.982 105.539 133.047 107.441C130.111 109.344 129.026 109.661 126.554 111.246C124.716 112.356 123.619 113.625 123.619 113.625C122.036 114.893 130.487 108.71 135.978 109.978C137.987 109.978 138.296 109.978 140.15 107.917C142.003 105.856 144.166 104.112 147.256 102.843C150.346 101.575 155.753 99.5139 155.753 99.5139" stroke="black" stroke-width="1.91409"/>
<path d="M136.441 114.1C136.02 114.1 134.266 114.033 133.592 114.259C133.003 114.338 132.062 114.415 131.534 114.576C130.639 114.682 129.814 114.869 128.843 114.893C127.799 114.902 127.428 115.221 126.469 115.368C126.169 115.744 125.602 116.195 125.202 116.478" stroke="black" stroke-width="1.69533" stroke-linecap="round"/>
<path d="M193.878 108.257C191.325 111.783 187.413 113.716 183.137 114.633C183.245 115.67 188.327 115.736 190.221 118.139" stroke="white" stroke-width="2.17971"/>
<path d="M98.3906 67.646C98.3089 68.5463 98.0266 72.4775 98.4178 72.5218C100.634 72.8388 102.162 73.2105 104.062 75.113C105.962 77.0156 110.309 80.2549 112.773 75.8086C114.04 73.2718 110.956 72.0853 109.373 72.0853C107.817 72.0307 105.373 70.8272 102.84 70.1929C100.307 69.5588 99.2791 67.9291 98.9625 68.2462L98.3906 67.646V67.646Z" fill="white" stroke="black" stroke-width="1.93752"/>
<path d="M88.4092 77.3581C88.0622 77.167 86.4199 74.9689 87.2699 72.2899C88.5017 70.4393 81.6922 74.2824 83.1292 76.3387C84.948 77.7577 88.5509 77.7404 88.4092 77.3581V77.3581Z" fill="white" stroke="black" stroke-width="1.93752"/>
<path d="M104.626 68.7746C104.655 68.3552 104.706 64.6035 104.643 63.7752C103.37 63.584 99.6025 63.0367 98.7813 64.2704C95.8607 68.6901 104.366 70.892 104.572 70.2751L104.626 68.7746H104.626Z" fill="white" stroke="black" stroke-width="1.93752"/>
<path d="M111.495 77.6361L106.157 96.1423C106.157 96.1423 103.144 109.279 112.316 112.798C115.191 113.003 116.217 112.592 116.217 112.592L115.396 117.116C111.324 121.321 108.699 120.328 105.209 118.888C101.719 117.449 101.577 117.336 99.7295 116.308C97.8818 115.28 95.3344 109.484 95.051 107.837C94.2588 103.576 91.5843 95.2075 83.5542 77.4304C85.003 77.303 94.4496 78.2588 95.0857 78.2588C95.4038 78.7684 96.8895 81.1994 99.1772 82.1598C101.69 83.1879 105.309 80.2242 101.641 77.8417C99.848 76.6972 93.8993 78.046 94.0101 74.934C94.1615 72.23 98.1508 72.4955 99.7931 72.7011C101.436 72.9067 103.694 74.7574 104.72 75.7854C107.019 78.0879 110.263 78.4586 111.495 77.6361Z" fill="white" stroke="black" stroke-width="1.93752"/>
<path d="M119.707 121.64C118.475 123.696 117.244 126.163 116.628 129.453C116.012 132.743 114.234 137.345 109.648 138.501C105.952 139.529 102.667 141.174 101.846 144.053C101.025 146.931 100.438 150.604 100.438 150.54L94.7244 142.442C94.788 141.359 94.8314 138.721 94.8314 135.637C94.895 131.15 98.2145 130.056 101.499 128.822C104.784 127.588 108.465 126.056 109.491 124.206C110.518 122.355 113.138 119.172 114.575 117.938C116.012 116.705 119.707 121.64 119.707 121.64V121.64Z" fill="white" stroke="black" stroke-width="1.93752"/>
<path d="M113.669 159.811C110.495 165.526 109.769 172.865 108.463 178.333C106.199 174.025 102.674 170.954 98.9576 168.536C98.7399 164.247 97.6552 158.326 96.4235 156.475C90.4738 147.791 94.6608 142.819 94.6608 142.819C100.606 149.812 100.811 154.816 113.658 159.8L113.669 159.811V159.811Z" fill="white" stroke="black" stroke-width="1.93752"/>
<path d="M119.323 177.476C119.486 178.894 117.591 183.826 114.383 184.046C111.232 184.263 109.414 181.835 108.838 178.997L110.417 169.466L119.323 177.476Z" fill="white" stroke="black" stroke-width="1.93752"/>
<path fill-rule="evenodd" clip-rule="evenodd" d="M119.345 114.259C119.978 112.515 119.028 112.515 117.287 113.307C114.438 115.051 116.496 119.491 119.662 120.442C121.403 121.235 122.353 119.174 119.82 118.222C117.445 117.588 119.345 114.1 119.345 114.259H119.187H119.345V114.259Z" fill="white" stroke="black" stroke-width="0.968759"/>
<path d="M98.7665 141.39C98.7665 141.461 98.7665 141.533 98.7665 141.605C98.7665 141.024 98.7769 141.319 98.6082 142.465C98.6082 143.628 98.5213 144.606 98.45 145.69C98.45 146.589 98.5563 147.233 98.6082 148.056" fill="white"/>
<path d="M98.7665 141.39C98.7665 141.461 98.7665 141.533 98.7665 141.605C98.7665 141.024 98.7769 141.319 98.6082 142.465C98.6082 143.628 98.5213 144.606 98.45 145.69C98.45 146.589 98.5563 147.233 98.6082 148.056" stroke="black" stroke-width="1.21095"/>
<path d="M100.35 142.463C100.35 142.594 100.35 142.725 100.35 142.856C100.35 142.13 100.37 142.335 100.191 143.445C100.128 144.551 99.9061 145.129 99.8748 146.194C99.8748 147.274 100.003 148.112 100.033 149.139" fill="white"/>
<path d="M100.35 142.463C100.35 142.594 100.35 142.725 100.35 142.856C100.35 142.13 100.37 142.335 100.191 143.445C100.128 144.551 99.9061 145.129 99.8748 146.194C99.8748 147.274 100.003 148.112 100.033 149.139" stroke="black" stroke-width="1.21095"/>
<path d="M101.141 166.103C101.088 166.103 101.035 166.103 100.983 166.103C101.025 166.252 100.983 167.102 100.983 167.67C100.983 168.525 100.999 169.359 101.141 169.908" fill="white"/>
<path d="M101.141 166.103C101.088 166.103 101.035 166.103 100.983 166.103C101.025 166.252 100.983 167.102 100.983 167.67C100.983 168.525 100.999 169.359 101.141 169.908" stroke="black" stroke-width="1.21095"/>
<path d="M102.882 166.896C102.882 167.002 102.882 167.108 102.882 167.213V166.896C102.882 167.002 102.882 167.108 102.882 167.213V166.896C102.848 168.068 102.724 168.716 102.724 169.909C102.724 170.273 102.656 170.55 102.882 170.701" fill="white"/>
<path d="M102.882 166.896C102.882 167.002 102.882 167.108 102.882 167.213V166.896ZM102.882 166.896C102.882 167.002 102.882 167.108 102.882 167.213V166.896ZM102.882 166.896C102.848 168.068 102.724 168.716 102.724 169.909C102.724 170.273 102.656 170.55 102.882 170.701" stroke="black" stroke-width="1.21095"/>
<path d="M104.465 167.847C104.401 169.124 104.188 169.96 104.149 171.272C104.149 171.931 104.281 172.004 104.307 172.604" fill="white"/>
<path d="M104.465 167.847C104.401 169.124 104.188 169.96 104.149 171.272C104.149 171.931 104.281 172.004 104.307 172.604" stroke="black" stroke-width="1.21095"/>
<path d="M106.365 168.813C106.365 168.88 106.365 168.947 106.365 169.013C106.365 168.473 106.375 168.748 106.206 169.815C106.178 170.799 106.048 171.33 106.048 172.419C106.078 173.466 106.309 173.902 106.365 174.823" fill="white"/>
<path d="M106.365 168.813C106.365 168.88 106.365 168.947 106.365 169.013C106.365 168.473 106.375 168.748 106.206 169.815C106.178 170.799 106.048 171.33 106.048 172.419C106.078 173.466 106.309 173.902 106.365 174.823" stroke="black" stroke-width="1.21095"/>
<path d="M107.789 169.433C107.789 169.716 107.704 170.815 107.631 171.494C107.631 172.234 107.631 172.974 107.631 173.714C107.719 174.452 107.88 175.246 108.106 175.775C108.106 175.933 108.106 176.092 108.106 176.25" fill="white"/>
<path d="M107.789 169.433C107.789 169.716 107.704 170.815 107.631 171.494C107.631 172.234 107.631 172.974 107.631 173.714C107.719 174.452 107.88 175.246 108.106 175.775C108.106 175.933 108.106 176.092 108.106 176.25" stroke="black" stroke-width="1.21095"/>
<path d="M97.1836 141.739C97.1433 142.037 96.9088 143.174 97.1836 143.905C97.1836 144.551 97.2572 144.882 97.3419 145.349" fill="white"/>
<path d="M97.1836 141.739C97.1433 142.037 96.9088 143.174 97.1836 143.905C97.1836 144.551 97.2572 144.882 97.3419 145.349" stroke="black" stroke-width="1.21095"/>
<path d="M115.462 114.323C113.338 114.76 108.163 114.323 106.093 112.796C104.022 111.268 104.022 111.268 104.022 111.268" fill="white"/>
<path d="M115.462 114.323C113.338 114.76 108.163 114.323 106.093 112.796C104.022 111.268 104.022 111.268 104.022 111.268" stroke="black" stroke-width="0.968759"/>
<path d="M115.455 115.367C113.426 116.133 108.247 116.519 105.962 115.337C103.677 114.155 103.677 114.155 103.677 114.155" fill="white"/>
<path d="M115.455 115.367C113.426 116.133 108.247 116.519 105.962 115.337C103.677 114.155 103.677 114.155 103.677 114.155" stroke="black" stroke-width="0.968759"/>
<path d="M115.626 118.143C114.536 119.453 113.774 120.107 113.447 121.853C113.12 123.599 113.12 123.599 113.12 123.599" fill="white"/>
<path d="M115.626 118.143C114.536 119.453 113.774 120.107 113.447 121.853C113.12 123.599 113.12 123.599 113.12 123.599" stroke="black" stroke-width="0.968759"/>
<path d="M116.933 118.798C115.626 120.653 114.754 121.307 114.318 123.162C113.883 125.018 113.883 125.018 113.883 125.018" fill="white"/>
<path d="M116.933 118.798C115.626 120.653 114.754 121.307 114.318 123.162C113.883 125.018 113.883 125.018 113.883 125.018" stroke="black" stroke-width="0.968759"/>
<path d="M118.023 119.998C117.478 122.835 115.299 128.182 113.665 129.928C112.03 131.674 112.03 131.674 112.03 131.674" fill="white"/>
<path d="M118.023 119.998C117.478 122.835 115.299 128.182 113.665 129.928C112.03 131.674 112.03 131.674 112.03 131.674" stroke="black" stroke-width="0.968759"/>
<path d="M109.853 180.268C110.953 180.126 113.091 178.347 113.571 177.708C114.051 177.069 114.086 176.8 114.086 176.8" fill="white"/>
<path d="M109.853 180.268C110.953 180.126 113.091 178.347 113.571 177.708C114.051 177.069 114.086 176.8 114.086 176.8" stroke="black" stroke-width="1.15844"/>
<path d="M110.614 181.713C111.802 181.424 114.116 179.474 114.636 178.815C115.156 178.155 115.261 177.983 115.261 177.983" fill="white"/>
<path d="M110.614 181.713C111.802 181.424 114.116 179.474 114.636 178.815C115.156 178.155 115.261 177.983 115.261 177.983" stroke="black" stroke-width="1.15834"/>
<path d="M111.266 183.043C112.521 182.905 115.118 180.936 115.725 180.223C116.333 179.51 116.333 179.51 116.333 179.51" fill="white"/>
<path d="M111.266 183.043C112.521 182.905 115.118 180.936 115.725 180.223C116.333 179.51 116.333 179.51 116.333 179.51" stroke="black" stroke-width="1.3103"/>
<path d="M95.6722 84.1772C95.8325 85.5013 95.9126 88.1093 95.4319 89.7543C94.9512 91.3994 94.9512 91.3994 94.9512 91.3994" fill="white"/>
<path d="M95.6722 84.1772C95.8325 85.5013 95.9126 88.1093 95.4319 89.7543C94.9512 91.3994 94.9512 91.3994 94.9512 91.3994" stroke="black" stroke-width="0.968759"/>
<path d="M91.8264 80.0046C92.7477 80.3256 94.1098 81.0478 94.5504 81.6497C94.9911 82.2515 94.9911 82.2515 94.9911 82.2515" fill="white"/>
<path d="M91.8264 80.0046C92.7477 80.3256 94.1098 81.0478 94.5504 81.6497C94.9911 82.2515 94.9911 82.2515 94.9911 82.2515" stroke="black" stroke-width="0.968759"/>
<path d="M102.945 81.1924C100.96 84.6859 101.576 96.1007 101.987 97.4006C102.397 98.7005 102.397 98.7005 102.397 98.7005" fill="white"/>
<path d="M102.945 81.1924C100.96 84.6859 101.576 96.1007 101.987 97.4006C102.397 98.7005 102.397 98.7005 102.397 98.7005" stroke="black" stroke-width="1.27403"/>
<path d="M109.416 74.1121C110.233 74.3849 111.921 75.7216 112.058 76.4581Z" fill="white"/>
<path d="M109.416 74.1121C110.233 74.3849 111.921 75.7216 112.058 76.4581" stroke="black" stroke-width="0.968759"/>
<path d="M108.108 75.0669C108.925 75.3397 110.614 76.6765 110.75 77.413Z" fill="white"/>
<path d="M108.108 75.0669C108.925 75.3397 110.614 76.6765 110.75 77.413" stroke="black" stroke-width="0.968759"/>
<path d="M190.164 111.759C191.782 111.672 191.913 116.372 189.828 116.263" stroke="white" stroke-width="1.4047"/>
<path d="M189.934 111.853L189.99 115.791" stroke="white" stroke-width="3.4602"/>
<path d="M189.824 111.759C188.206 111.672 188.075 116.372 190.16 116.263" stroke="white" stroke-width="1.4047"/>
<path fill-rule="evenodd" clip-rule="evenodd" d="M115.914 391.263C127.075 396.433 129.803 403.242 134.732 408.672C139.66 414.103 147.009 425.785 161.303 421.835C161.751 418.91 163.597 410.841 168.987 407.191C172.318 405.159 176.38 402.255 177.12 397.318C183.034 398.799 197.845 399.983 198.56 392.135C198.807 389.419 196.484 385.259 198.968 382.396C199.529 382.413 202.672 382.477 203.496 382.091C204.359 381.071 203.507 377.359 202.883 376.535L202.889 376.501C204.365 376.366 208.172 372.882 203.489 370.413C202.254 368.959 202.471 367.771 202.475 366.432C203.248 366.442 205.15 366.42 205.428 366.402C210.363 366.383 209.729 363.194 208.308 359.799C207.322 357.578 201.764 346.964 200.778 345.483C199.793 344.002 199.793 343.262 200.532 341.781C201.271 340.3 201.025 337.831 200.532 336.104C200.039 334.376 199.053 331.66 199.793 330.92C200.532 330.179 200.285 327.711 200.039 327.218C199.793 326.724 199.793 325.49 199.793 324.996C199.793 324.502 199.546 323.268 198.807 322.775C198.067 322.281 197.575 320.553 198.067 320.059C198.56 319.566 197.821 316.11 197.082 315.863C196.342 315.616 194.864 315.123 194.124 313.395C194.212 310.957 192.3 308.191 191.167 306.977C190.428 306.237 190.674 303.768 190.674 303.768L188.506 303.818C188.27 303.739 186.485 301.3 184.76 300.806C183.034 300.313 179.091 298.338 179.091 298.338L176.38 295.376L173.916 296.61C173.916 296.61 171.944 295.87 170.219 295.623C168.494 295.376 164.798 294.142 163.565 292.167C162.333 290.193 162.58 294.517 162.54 294.754C162.383 294.793 160.362 293.648 156.911 293.895C153.461 294.142 149.518 295.623 148.286 295.129C147.054 294.636 145.822 296.117 145.822 296.117C145.822 296.117 143.357 297.598 141.386 297.598C139.414 297.598 137.689 297.598 137.689 297.598L137.443 299.325C137.443 299.325 133.746 300.599 132.021 301.34C130.296 302.08 128.817 303.028 126.599 303.275C124.381 303.522 123.642 304.262 123.642 304.262L124.628 306.237C124.628 306.237 121.966 306.78 121.177 309.446C119.699 311.42 117.727 314.629 116.248 314.876C114.77 315.123 113.784 315.863 113.784 315.863L115.756 318.332C115.756 318.332 115.263 319.072 114.277 320.059C113.291 321.047 111.32 322.775 111.32 322.775L112.552 324.996C112.552 324.996 112.552 325.49 112.305 326.724C112.059 327.958 112.059 330.179 110.827 330.673C109.594 331.167 109.595 332.648 109.595 332.648C109.595 332.648 109.348 332.895 110.827 333.388C112.305 333.882 113.291 333.882 112.552 334.869C111.812 335.857 110.58 337.585 110.58 337.585C110.58 337.585 111.812 338.325 113.045 338.572C114.277 338.819 115.509 338.819 115.509 338.819C115.509 338.819 114.523 343.508 113.538 344.249C112.552 344.989 115.016 345.483 116.495 344.743C117.974 344.002 117.05 346.964 116.064 347.211C115.078 347.458 116.422 347.803 117.58 347.815C118.566 347.569 119.834 347.741 119.268 349.198C118.528 351.172 117.727 352.148 119.699 353.135C121.67 354.122 123.457 358.565 122.471 360.046C121.485 361.527 120.931 363.749 120.931 363.749L125.613 363.996C125.613 363.996 125.934 364.736 124.701 365.97C123.469 367.204 122.237 368.611 122.41 368.957C122.372 369.491 126.118 369.274 126.081 369.808C122.894 385.587 115.325 390.012 115.314 390.843L115.914 391.263L115.914 391.263Z" fill="black" stroke="black" stroke-width="0.968759"/>
<path fill-rule="evenodd" clip-rule="evenodd" d="M194.436 315.684C196.079 316.918 197.516 318.974 196.079 320.208C194.231 321.853 193.41 322.47 193.41 322.47C193.41 322.47 196.695 321.442 197.31 322.675C197.926 323.909 198.645 325.786 197.31 326.171C196.284 326.788 194.026 328.022 194.026 328.022C194.026 328.022 199.158 327.405 197.926 327.61C198.542 329.255 199.158 332.134 195.873 333.368C192.588 334.602 182.324 338.303 180.476 339.331C178.628 340.359 174.522 340.976 172.469 340.976C170.416 340.976 162.819 341.387 164.052 341.387L168.569 342.621C169.339 342.698 159.227 346.064 157.738 345.757C156.943 343.906 146.602 334.19 140.853 346.117C140.237 348.79 142.29 352.902 144.343 353.725C146.396 354.547 147.423 355.575 148.244 357.837C149.065 360.099 151.168 364.134 153.427 363.801C156.533 361.77 157.893 361.95 156.456 363.595C154.865 365.857 151.144 365.96 149.27 363.183C147.705 361.256 146.295 356.27 143.111 354.958C141.469 354.342 139.416 350.435 139.416 350.435C139.416 350.435 136.542 350.229 135.31 351.463C134.078 352.697 130.999 352.697 129.151 352.491C127.303 352.285 124.198 351.592 125.225 351.592C126.251 351.592 122.375 351.463 121.144 351.669C119.912 351.874 120.323 348.584 122.376 346.939C124.429 345.294 130.178 342.621 131.409 340.976C132.641 339.331 141.469 334.396 143.933 334.19C146.396 333.985 149.476 332.34 149.476 332.34C149.476 332.34 144.856 332.263 147.114 331.852C149.372 331.441 153.787 329.667 156.045 328.844C158.304 328.022 160.151 328.022 162.615 328.022C165.078 328.022 181.433 324.01 185.514 321.515C188.594 320.487 170.904 325.631 168.851 325.837C165.361 326.351 164.257 325.657 170.006 322.881C172.469 321.442 183.441 315.679 192.222 313.271C193.121 314.172 192.794 314.45 194.436 315.684V315.684Z" fill="white" stroke="black" stroke-width="0.121095"/>
<path d="M149.607 349.535C149.527 349.545 149.196 349.603 148.983 349.826C148.748 350.13 148.548 350.403 148.429 350.697C148.342 351.09 148.227 351.413 148.291 351.787C148.423 352.152 148.602 352.412 148.845 352.658C149.119 352.997 149.319 353.169 149.607 353.384C149.928 353.537 150.236 353.833 150.507 353.965C150.637 354.142 150.972 354.272 151.131 354.474C151.315 354.722 151.458 354.845 151.477 355.2C151.597 355.553 151.637 355.987 151.685 356.362C151.753 356.774 151.85 357.161 151.893 357.524C152.066 357.835 152.255 357.994 152.655 358.105C152.986 358.164 153.328 358.177 153.694 358.177C153.901 357.979 154.254 357.755 154.456 357.524C154.456 357.33 154.456 357.137 154.456 356.943" stroke="white" stroke-width="2.45079" stroke-linecap="round"/>
<path fill-rule="evenodd" clip-rule="evenodd" d="M155.38 347.915C153.608 345.06 142.515 339.813 145.211 349.998C145.827 351.079 144.672 351.542 144.364 350.77C141.513 338.733 153.762 343.748 155.688 346.912C156.459 348.224 155.38 347.992 155.38 347.915Z" fill="white" stroke="white" stroke-width="0.968759"/>
<path d="M195.363 330.554C191.203 330.477 186.812 330.708 183.422 332.869C180.033 335.029 177.028 335.646 173.407 335.646C169.786 335.646 167.938 335.724 167.938 335.724" stroke="black" stroke-width="1.93752" stroke-linecap="round"/>
<path d="M144.166 336.809C137.214 339.504 135.982 340.297 133.047 342.199C130.111 344.102 129.026 344.419 126.554 346.004C124.716 347.114 123.619 348.383 123.619 348.383C122.036 349.651 130.487 343.468 135.978 344.736C137.987 344.736 138.296 344.736 140.15 342.675C142.003 340.614 144.166 338.87 147.256 337.601C150.346 336.333 155.753 334.272 155.753 334.272" stroke="black" stroke-width="1.91409"/>
<path d="M136.441 348.858C136.02 348.858 134.266 348.791 133.592 349.017C133.003 349.096 132.062 349.173 131.534 349.334C130.639 349.44 129.814 349.627 128.843 349.651C127.799 349.66 127.428 349.98 126.469 350.126C126.169 350.502 125.602 350.953 125.202 351.236" stroke="black" stroke-width="1.69533" stroke-linecap="round"/>
<path d="M193.878 343.015C191.325 346.541 187.413 348.474 183.137 349.391C183.245 350.428 188.327 350.494 190.221 352.897" stroke="white" stroke-width="2.17971"/>
<path d="M98.3906 302.404C98.3089 303.304 98.0266 307.236 98.4178 307.28C100.634 307.597 102.162 307.969 104.062 309.871C105.962 311.774 110.309 315.013 112.773 310.567C114.04 308.03 110.956 306.843 109.373 306.843C107.817 306.789 105.373 305.585 102.84 304.951C100.307 304.317 99.2791 302.687 98.9625 303.004L98.3906 302.404V302.404Z" fill="white" stroke="black" stroke-width="1.93752"/>
<path d="M88.4092 312.116C88.0622 311.925 86.4199 309.727 87.2699 307.048C88.5017 305.197 81.6922 309.04 83.1292 311.097C84.948 312.516 88.5509 312.498 88.4092 312.116V312.116Z" fill="white" stroke="black" stroke-width="1.93752"/>
<path d="M104.626 303.533C104.655 303.113 104.706 299.362 104.643 298.533C103.37 298.342 99.6025 297.795 98.7813 299.029C95.8607 303.448 104.366 305.65 104.572 305.033L104.626 303.533H104.626Z" fill="white" stroke="black" stroke-width="1.93752"/>
<path d="M111.495 312.394L106.157 330.9C106.157 330.9 103.144 344.037 112.316 347.556C115.191 347.762 116.217 347.35 116.217 347.35L115.396 351.874C111.324 356.079 108.699 355.086 105.209 353.646C101.719 352.207 101.577 352.094 99.7295 351.066C97.8818 350.038 95.3344 344.242 95.051 342.595C94.2588 338.334 91.5843 329.966 83.5542 312.188C85.003 312.061 94.4496 313.017 95.0857 313.017C95.4038 313.527 96.8895 315.957 99.1772 316.918C101.69 317.946 105.309 314.982 101.641 312.6C99.848 311.455 93.8993 312.804 94.0101 309.692C94.1615 306.988 98.1508 307.254 99.7931 307.459C101.436 307.665 103.694 309.515 104.72 310.543C107.019 312.846 110.263 313.217 111.495 312.394Z" fill="white" stroke="black" stroke-width="1.93752"/>
<path d="M119.707 356.398C118.475 358.454 117.244 360.922 116.628 364.212C116.012 367.501 114.234 372.103 109.648 373.259C105.952 374.287 102.667 375.932 101.846 378.811C101.025 381.69 100.438 385.362 100.438 385.298L94.7244 377.201C94.788 376.117 94.8314 373.479 94.8314 370.395C94.895 365.909 98.2145 364.814 101.499 363.58C104.784 362.346 108.465 360.814 109.491 358.964C110.518 357.113 113.138 353.93 114.575 352.697C116.012 351.463 119.707 356.398 119.707 356.398V356.398Z" fill="white" stroke="black" stroke-width="1.93752"/>
<path d="M113.669 394.569C110.495 400.284 109.769 407.623 108.463 413.091C106.199 408.783 102.674 405.712 98.9576 403.294C98.7399 399.005 97.6552 393.084 96.4235 391.233C90.4738 382.549 94.6608 377.577 94.6608 377.577C100.606 384.57 100.811 389.574 113.658 394.559L113.669 394.569V394.569Z" fill="white" stroke="black" stroke-width="1.93752"/>
<path d="M119.323 412.234C119.486 413.653 117.591 418.584 114.383 418.804C111.232 419.021 109.414 416.593 108.838 413.755L110.417 404.224L119.323 412.234Z" fill="white" stroke="black" stroke-width="1.93752"/>
<path fill-rule="evenodd" clip-rule="evenodd" d="M119.345 349.017C119.978 347.273 119.028 347.273 117.287 348.065C114.438 349.809 116.496 354.249 119.662 355.2C121.403 355.993 122.353 353.932 119.82 352.98C117.445 352.346 119.345 348.858 119.345 349.017H119.187H119.345V349.017Z" fill="white" stroke="black" stroke-width="0.968759"/>
<path d="M98.7665 376.148C98.7665 376.219 98.7665 376.291 98.7665 376.363C98.7665 375.782 98.7769 376.077 98.6082 377.223C98.6082 378.386 98.5213 379.364 98.45 380.449C98.45 381.347 98.5563 381.991 98.6082 382.814" fill="white"/>
<path d="M98.7665 376.148C98.7665 376.219 98.7665 376.291 98.7665 376.363C98.7665 375.782 98.7769 376.077 98.6082 377.223C98.6082 378.386 98.5213 379.364 98.45 380.449C98.45 381.347 98.5563 381.991 98.6082 382.814" stroke="black" stroke-width="1.21095"/>
<path d="M100.35 377.221C100.35 377.352 100.35 377.483 100.35 377.614C100.35 376.888 100.37 377.093 100.191 378.203C100.128 379.309 99.9061 379.887 99.8748 380.952C99.8748 382.032 100.003 382.87 100.033 383.897" fill="white"/>
<path d="M100.35 377.221C100.35 377.352 100.35 377.483 100.35 377.614C100.35 376.888 100.37 377.093 100.191 378.203C100.128 379.309 99.9061 379.887 99.8748 380.952C99.8748 382.032 100.003 382.87 100.033 383.897" stroke="black" stroke-width="1.21095"/>
<path d="M101.141 400.861C101.088 400.861 101.035 400.861 100.983 400.861C101.025 401.01 100.983 401.86 100.983 402.428C100.983 403.283 100.999 404.117 101.141 404.666" fill="white"/>
<path d="M101.141 400.861C101.088 400.861 101.035 400.861 100.983 400.861C101.025 401.01 100.983 401.86 100.983 402.428C100.983 403.283 100.999 404.117 101.141 404.666" stroke="black" stroke-width="1.21095"/>
<path d="M102.882 401.654C102.882 401.76 102.882 401.866 102.882 401.971V401.654C102.882 401.76 102.882 401.866 102.882 401.971V401.654C102.848 402.826 102.724 403.474 102.724 404.667C102.724 405.031 102.656 405.308 102.882 405.459" fill="white"/>
<path d="M102.882 401.654C102.882 401.76 102.882 401.866 102.882 401.971V401.654ZM102.882 401.654C102.882 401.76 102.882 401.866 102.882 401.971V401.654ZM102.882 401.654C102.848 402.826 102.724 403.474 102.724 404.667C102.724 405.031 102.656 405.308 102.882 405.459" stroke="black" stroke-width="1.21095"/>
<path d="M104.465 402.605C104.401 403.882 104.188 404.718 104.149 406.03C104.149 406.689 104.281 406.763 104.307 407.362" fill="white"/>
<path d="M104.465 402.605C104.401 403.882 104.188 404.718 104.149 406.03C104.149 406.689 104.281 406.763 104.307 407.362" stroke="black" stroke-width="1.21095"/>
<path d="M106.365 403.571C106.365 403.638 106.365 403.705 106.365 403.771C106.365 403.231 106.375 403.506 106.206 404.573C106.178 405.557 106.048 406.088 106.048 407.177C106.078 408.224 106.309 408.66 106.365 409.581" fill="white"/>
<path d="M106.365 403.571C106.365 403.638 106.365 403.705 106.365 403.771C106.365 403.231 106.375 403.506 106.206 404.573C106.178 405.557 106.048 406.088 106.048 407.177C106.078 408.224 106.309 408.66 106.365 409.581" stroke="black" stroke-width="1.21095"/>
<path d="M107.789 404.191C107.789 404.474 107.704 405.573 107.631 406.252C107.631 406.992 107.631 407.732 107.631 408.472C107.719 409.21 107.88 410.005 108.106 410.533C108.106 410.691 108.106 410.85 108.106 411.008" fill="white"/>
<path d="M107.789 404.191C107.789 404.474 107.704 405.573 107.631 406.252C107.631 406.992 107.631 407.732 107.631 408.472C107.719 409.21 107.88 410.005 108.106 410.533C108.106 410.691 108.106 410.85 108.106 411.008" stroke="black" stroke-width="1.21095"/>
<path d="M97.1836 376.497C97.1433 376.795 96.9088 377.932 97.1836 378.663C97.1836 379.309 97.2572 379.64 97.3419 380.107" fill="white"/>
<path d="M97.1836 376.497C97.1433 376.795 96.9088 377.932 97.1836 378.663C97.1836 379.309 97.2572 379.64 97.3419 380.107" stroke="black" stroke-width="1.21095"/>
<path d="M115.462 349.082C113.338 349.518 108.163 349.082 106.093 347.554C104.022 346.026 104.022 346.026 104.022 346.026" fill="white"/>
<path d="M115.462 349.082C113.338 349.518 108.163 349.082 106.093 347.554C104.022 346.026 104.022 346.026 104.022 346.026" stroke="black" stroke-width="0.968759"/>
<path d="M115.455 350.125C113.426 350.891 108.247 351.277 105.962 350.095C103.677 348.913 103.677 348.913 103.677 348.913" fill="white"/>
<path d="M115.455 350.125C113.426 350.891 108.247 351.277 105.962 350.095C103.677 348.913 103.677 348.913 103.677 348.913" stroke="black" stroke-width="0.968759"/>
<path d="M115.626 352.901C114.536 354.211 113.774 354.865 113.447 356.611C113.12 358.357 113.12 358.357 113.12 358.357" fill="white"/>
<path d="M115.626 352.901C114.536 354.211 113.774 354.865 113.447 356.611C113.12 358.357 113.12 358.357 113.12 358.357" stroke="black" stroke-width="0.968759"/>
<path d="M116.933 353.556C115.626 355.411 114.754 356.066 114.318 357.921C113.883 359.776 113.883 359.776 113.883 359.776" fill="white"/>
<path d="M116.933 353.556C115.626 355.411 114.754 356.066 114.318 357.921C113.883 359.776 113.883 359.776 113.883 359.776" stroke="black" stroke-width="0.968759"/>
<path d="M118.023 354.756C117.478 357.593 115.299 362.94 113.665 364.686C112.03 366.432 112.03 366.432 112.03 366.432" fill="white"/>
<path d="M118.023 354.756C117.478 357.593 115.299 362.94 113.665 364.686C112.03 366.432 112.03 366.432 112.03 366.432" stroke="black" stroke-width="0.968759"/>
<path d="M109.853 415.026C110.953 414.884 113.091 413.105 113.571 412.466C114.051 411.827 114.086 411.558 114.086 411.558" fill="white"/>
<path d="M109.853 415.026C110.953 414.884 113.091 413.105 113.571 412.466C114.051 411.827 114.086 411.558 114.086 411.558" stroke="black" stroke-width="1.15844"/>
<path d="M110.614 416.471C111.802 416.183 114.116 414.232 114.636 413.573C115.156 412.913 115.261 412.741 115.261 412.741" fill="white"/>
<path d="M110.614 416.471C111.802 416.183 114.116 414.232 114.636 413.573C115.156 412.913 115.261 412.741 115.261 412.741" stroke="black" stroke-width="1.15834"/>
<path d="M111.266 417.801C112.521 417.663 115.118 415.694 115.725 414.981C116.333 414.268 116.333 414.268 116.333 414.268" fill="white"/>
<path d="M111.266 417.801C112.521 417.663 115.118 415.694 115.725 414.981C116.333 414.268 116.333 414.268 116.333 414.268" stroke="black" stroke-width="1.3103"/>
<path d="M95.6722 318.935C95.8325 320.259 95.9126 322.867 95.4319 324.512C94.9512 326.157 94.9512 326.157 94.9512 326.157" fill="white"/>
<path d="M95.6722 318.935C95.8325 320.259 95.9126 322.867 95.4319 324.512C94.9512 326.157 94.9512 326.157 94.9512 326.157" stroke="black" stroke-width="0.968759"/>
<path d="M91.8264 314.763C92.7477 315.084 94.1098 315.806 94.5504 316.408C94.9911 317.01 94.9911 317.01 94.9911 317.01" fill="white"/>
<path d="M91.8264 314.763C92.7477 315.084 94.1098 315.806 94.5504 316.408C94.9911 317.01 94.9911 317.01 94.9911 317.01" stroke="black" stroke-width="0.968759"/>
<path d="M102.945 315.95C100.96 319.444 101.576 330.859 101.987 332.159C102.397 333.459 102.397 333.459 102.397 333.459" fill="white"/>
<path d="M102.945 315.95C100.96 319.444 101.576 330.859 101.987 332.159C102.397 333.459 102.397 333.459 102.397 333.459" stroke="black" stroke-width="1.27403"/>
<path d="M109.416 308.87C110.233 309.143 111.921 310.48 112.058 311.216Z" fill="white"/>
<path d="M109.416 308.87C110.233 309.143 111.921 310.48 112.058 311.216" stroke="black" stroke-width="0.968759"/>
<path d="M108.108 309.825C108.925 310.098 110.614 311.435 110.75 312.171Z" fill="white"/>
<path d="M108.108 309.825C108.925 310.098 110.614 311.435 110.75 312.171" stroke="black" stroke-width="0.968759"/>
<path d="M190.164 346.517C191.782 346.43 191.913 351.13 189.828 351.021" stroke="white" stroke-width="1.4047"/>
<path d="M189.934 346.611L189.99 350.549" stroke="white" stroke-width="3.4602"/>
<path d="M189.824 346.517C188.206 346.43 188.075 351.13 190.16 351.021" stroke="white" stroke-width="1.4047"/>
<path fill-rule="evenodd" clip-rule="evenodd" d="M458.248 156.505C469.409 161.675 472.137 168.484 477.066 173.914C481.995 179.345 489.343 191.027 503.637 187.077C504.085 184.152 505.932 176.083 511.321 172.433C514.652 170.401 518.715 167.497 519.454 162.56C525.369 164.041 540.18 165.225 540.895 157.376C541.141 154.661 538.819 150.501 541.302 147.638C541.863 147.655 545.007 147.718 545.831 147.333C546.693 146.313 545.842 142.601 545.217 141.777L545.223 141.742C546.699 141.608 550.506 138.124 545.823 135.655C544.589 134.201 544.805 133.013 544.809 131.674C545.583 131.684 547.484 131.662 547.762 131.644C552.698 131.625 552.064 128.436 550.642 125.041C549.656 122.82 544.098 112.206 543.113 110.725C542.127 109.244 542.127 108.504 542.866 107.023C543.605 105.542 543.359 103.073 542.866 101.345C542.373 99.6176 541.387 96.9024 542.127 96.1619C542.866 95.4214 542.62 92.9531 542.373 92.4594C542.127 91.9658 542.127 90.7316 542.127 90.238C542.127 89.7443 541.88 88.5102 541.141 88.0165C540.402 87.5228 539.909 85.795 540.402 85.3013C540.895 84.8076 540.155 81.352 539.416 81.1051C538.677 80.8583 537.198 80.3646 536.459 78.6368C536.546 76.1992 534.634 73.4328 533.501 72.2192C532.762 71.4787 533.008 69.0103 533.008 69.0103L530.84 69.0601C530.604 68.9812 528.819 66.542 527.094 66.0484C525.369 65.5547 521.426 63.5801 521.426 63.5801L518.715 60.6181L516.25 61.8522C516.25 61.8522 514.279 61.1117 512.554 60.8649C510.828 60.6181 507.132 59.3839 505.9 57.4092C504.667 55.4345 504.914 59.7593 504.874 59.9959C504.717 60.0353 502.696 58.8902 499.246 59.1371C495.795 59.3839 491.852 60.8649 490.62 60.3712C489.388 59.8776 488.156 61.3586 488.156 61.3586C488.156 61.3586 485.691 62.8396 483.72 62.8396C481.748 62.8396 480.023 62.8396 480.023 62.8396L479.777 64.5674C479.777 64.5674 476.08 65.841 474.355 66.5815C472.63 67.3219 471.151 68.2698 468.933 68.5167C466.715 68.7635 465.976 69.504 465.976 69.504L466.962 71.4787C466.962 71.4787 464.3 72.022 463.512 74.6875C462.033 76.6622 460.061 79.871 458.583 80.1178C457.104 80.3646 456.118 81.1051 456.118 81.1051L458.09 83.5735C458.09 83.5735 457.597 84.314 456.611 85.3013C455.625 86.2887 453.654 88.0165 453.654 88.0165L454.886 90.238C454.886 90.238 454.886 90.7316 454.64 91.9658C454.393 93.1999 454.393 95.4214 453.161 95.9151C451.929 96.4088 451.929 97.8898 451.929 97.8898C451.929 97.8898 451.682 98.1366 453.161 98.6303C454.64 99.124 455.625 99.124 454.886 100.111C454.147 101.099 452.914 102.826 452.914 102.826C452.914 102.826 454.147 103.567 455.379 103.814C456.611 104.061 457.843 104.061 457.843 104.061C457.843 104.061 456.858 108.75 455.872 109.491C454.886 110.231 457.351 110.725 458.829 109.985C460.308 109.244 459.384 112.206 458.398 112.453C457.412 112.7 458.756 113.045 459.914 113.057C460.9 112.811 462.169 112.983 461.602 114.44C460.862 116.414 460.061 117.39 462.033 118.377C464.004 119.364 465.791 123.807 464.806 125.288C463.82 126.769 463.265 128.991 463.265 128.991L467.947 129.238C467.947 129.238 468.268 129.978 467.036 131.212C465.804 132.446 464.571 133.853 464.744 134.199C464.707 134.733 468.453 134.516 468.415 135.05C465.228 150.828 457.659 155.254 457.649 156.085L458.248 156.505L458.248 156.505Z" fill="black" stroke="black" stroke-width="0.968759"/>
<path fill-rule="evenodd" clip-rule="evenodd" d="M536.77 80.9261C538.413 82.1599 539.85 84.2161 538.413 85.4499C536.565 87.0948 535.744 87.7117 535.744 87.7117C535.744 87.7117 539.029 86.6836 539.645 87.9173C540.261 89.1511 540.979 91.0276 539.645 91.4129C538.618 92.0298 536.36 93.2636 536.36 93.2636C536.36 93.2636 541.492 92.6467 540.261 92.8523C540.876 94.4973 541.492 97.376 538.208 98.6098C534.923 99.8435 524.658 103.545 522.81 104.573C520.962 105.601 516.856 106.218 514.803 106.218C512.75 106.218 505.153 106.629 506.386 106.629L510.903 107.863C511.673 107.94 501.561 111.306 500.073 110.999C499.277 109.147 488.936 99.4323 483.187 111.358C482.571 114.032 484.624 118.144 486.677 118.967C488.73 119.789 489.757 120.817 490.578 123.079C491.399 125.341 493.502 129.376 495.761 129.043C498.868 127.012 500.227 127.192 498.79 128.837C497.199 131.099 493.478 131.202 491.605 128.425C490.039 126.498 488.629 121.512 485.446 120.2C483.803 119.583 481.75 115.677 481.75 115.677C481.75 115.677 478.876 115.471 477.644 116.705C476.412 117.938 473.333 117.938 471.485 117.733C469.638 117.527 466.532 116.834 467.559 116.834C468.585 116.834 464.71 116.705 463.478 116.911C462.246 117.116 462.657 113.826 464.71 112.181C466.763 110.536 472.512 107.863 473.744 106.218C474.975 104.573 483.803 99.6379 486.267 99.4323C488.73 99.2267 491.81 97.5817 491.81 97.5817C491.81 97.5817 487.19 97.5049 489.448 97.0937C491.707 96.6825 496.121 94.9086 498.379 94.0861C500.638 93.2636 502.485 93.2636 504.949 93.2636C507.413 93.2636 523.768 89.2516 527.848 86.7574C530.928 85.7293 513.238 90.8732 511.185 91.0789C507.695 91.593 506.591 90.8989 512.34 88.1229C514.803 86.6836 525.775 80.9209 534.556 78.5132C535.455 79.4135 535.128 79.6924 536.77 80.9261V80.9261Z" fill="white" stroke="black" stroke-width="0.121095"/>
<path d="M491.941 114.777C491.861 114.787 491.53 114.845 491.318 115.068C491.082 115.372 490.882 115.645 490.763 115.939C490.676 116.331 490.561 116.655 490.625 117.029C490.758 117.394 490.936 117.654 491.179 117.9C491.453 118.239 491.653 118.411 491.941 118.626C492.262 118.779 492.57 119.075 492.842 119.207C492.972 119.384 493.306 119.514 493.465 119.716C493.65 119.964 493.792 120.087 493.811 120.442C493.931 120.795 493.971 121.229 494.019 121.604C494.087 122.016 494.184 122.403 494.227 122.766C494.4 123.077 494.589 123.236 494.989 123.347C495.32 123.406 495.662 123.419 496.028 123.419C496.235 123.221 496.588 122.997 496.79 122.766C496.79 122.572 496.79 122.378 496.79 122.185" stroke="white" stroke-width="2.45079" stroke-linecap="round"/>
<path fill-rule="evenodd" clip-rule="evenodd" d="M497.714 113.157C495.943 110.302 484.849 105.055 487.545 115.24C488.162 116.321 487.006 116.784 486.698 116.012C483.847 103.975 496.097 108.99 498.023 112.154C498.793 113.466 497.714 113.234 497.714 113.157Z" fill="white" stroke="white" stroke-width="0.968759"/>
<path d="M537.698 95.7957C533.538 95.7185 529.146 95.95 525.757 98.1105C522.367 100.271 519.362 100.888 515.742 100.888C512.121 100.888 510.272 100.966 510.272 100.966" stroke="black" stroke-width="1.93752" stroke-linecap="round"/>
<path d="M486.501 102.051C479.548 104.746 478.316 105.539 475.381 107.441C472.446 109.344 471.36 109.661 468.889 111.246C467.05 112.356 465.953 113.625 465.953 113.625C464.37 114.893 472.822 108.71 478.313 109.978C480.321 109.978 480.63 109.978 482.484 107.917C484.338 105.856 486.501 104.112 489.59 102.843C492.68 101.575 498.087 99.5139 498.087 99.5139" stroke="black" stroke-width="1.91409"/>
<path d="M478.775 114.1C478.354 114.1 476.6 114.033 475.926 114.259C475.338 114.338 474.396 114.415 473.868 114.576C472.973 114.682 472.148 114.869 471.177 114.893C470.133 114.902 469.762 115.221 468.803 115.368C468.503 115.744 467.937 116.195 467.536 116.478" stroke="black" stroke-width="1.69533" stroke-linecap="round"/>
<path d="M536.212 108.257C533.66 111.783 529.748 113.716 525.472 114.633C525.58 115.67 530.661 115.736 532.555 118.139" stroke="white" stroke-width="2.17971"/>
<path d="M440.725 67.646C440.643 68.5463 440.361 72.4775 440.752 72.5218C442.968 72.8388 444.497 73.2105 446.396 75.113C448.296 77.0156 452.643 80.2549 455.108 75.8086C456.374 73.2718 453.29 72.0853 451.707 72.0853C450.151 72.0307 447.707 70.8272 445.174 70.1929C442.641 69.5588 441.613 67.9291 441.297 68.2462L440.725 67.646V67.646Z" fill="white" stroke="black" stroke-width="1.93752"/>
<path d="M430.743 77.3581C430.396 77.167 428.754 74.9689 429.604 72.2899C430.836 70.4393 424.026 74.2824 425.463 76.3387C427.282 77.7577 430.885 77.7404 430.743 77.3581V77.3581Z" fill="white" stroke="black" stroke-width="1.93752"/>
<path d="M446.96 68.7746C446.99 68.3552 447.04 64.6035 446.977 63.7752C445.704 63.584 441.937 63.0367 441.116 64.2704C438.195 68.6901 446.701 70.892 446.906 70.2751L446.96 68.7746H446.96Z" fill="white" stroke="black" stroke-width="1.93752"/>
<path d="M453.829 77.6361L448.492 96.1423C448.492 96.1423 445.478 109.279 454.651 112.798C457.525 113.003 458.551 112.592 458.551 112.592L457.73 117.116C453.659 121.321 451.033 120.328 447.543 118.888C444.053 117.449 443.911 117.336 442.064 116.308C440.216 115.28 437.669 109.484 437.385 107.837C436.593 103.576 433.919 95.2075 425.888 77.4304C427.337 77.303 436.784 78.2588 437.42 78.2588C437.738 78.7684 439.224 81.1994 441.511 82.1598C444.024 83.1879 447.644 80.2242 443.975 77.8417C442.182 76.6972 436.234 78.046 436.344 74.934C436.496 72.23 440.485 72.4955 442.127 72.7011C443.77 72.9067 446.028 74.7574 447.055 75.7854C449.353 78.0879 452.598 78.4586 453.829 77.6361Z" fill="white" stroke="black" stroke-width="1.93752"/>
<path d="M462.041 121.64C460.81 123.696 459.578 126.163 458.962 129.453C458.346 132.743 456.568 137.345 451.982 138.501C448.286 139.529 445.002 141.174 444.18 144.053C443.359 146.931 442.772 150.604 442.772 150.54L437.059 142.442C437.122 141.359 437.166 138.721 437.166 135.637C437.229 131.15 440.549 130.056 443.833 128.822C447.118 127.588 450.799 126.056 451.826 124.206C452.852 122.355 455.472 119.172 456.909 117.938C458.346 116.705 462.041 121.64 462.041 121.64V121.64Z" fill="white" stroke="black" stroke-width="1.93752"/>
<path d="M456.003 159.811C452.829 165.526 452.103 172.865 450.798 178.333C448.533 174.025 445.008 170.954 441.292 168.536C441.074 164.247 439.989 158.326 438.758 156.475C432.808 147.791 436.995 142.819 436.995 142.819C442.94 149.812 443.146 154.816 455.993 159.8L456.003 159.811V159.811Z" fill="white" stroke="black" stroke-width="1.93752"/>
<path d="M461.657 177.476C461.821 178.894 459.926 183.826 456.718 184.046C453.567 184.263 451.749 181.835 451.172 178.997L452.751 169.466L461.657 177.476Z" fill="white" stroke="black" stroke-width="1.93752"/>
<path fill-rule="evenodd" clip-rule="evenodd" d="M461.679 114.259C462.312 112.515 461.363 112.515 459.621 113.307C456.772 115.051 458.83 119.491 461.996 120.442C463.737 121.235 464.687 119.174 462.154 118.222C459.78 117.588 461.679 114.1 461.679 114.259H461.521H461.679V114.259Z" fill="white" stroke="black" stroke-width="0.968759"/>
<path d="M441.101 141.39C441.101 141.461 441.101 141.533 441.101 141.605C441.101 141.024 441.111 141.319 440.942 142.465C440.942 143.628 440.856 144.606 440.784 145.69C440.784 146.589 440.891 147.233 440.942 148.056" fill="white"/>
<path d="M441.101 141.39C441.101 141.461 441.101 141.533 441.101 141.605C441.101 141.024 441.111 141.319 440.942 142.465C440.942 143.628 440.856 144.606 440.784 145.69C440.784 146.589 440.891 147.233 440.942 148.056" stroke="black" stroke-width="1.21095"/>
<path d="M442.684 142.463C442.684 142.594 442.684 142.725 442.684 142.856C442.684 142.13 442.705 142.335 442.526 143.445C442.462 144.551 442.24 145.129 442.209 146.194C442.209 147.274 442.338 148.112 442.367 149.139" fill="white"/>
<path d="M442.684 142.463C442.684 142.594 442.684 142.725 442.684 142.856C442.684 142.13 442.705 142.335 442.526 143.445C442.462 144.551 442.24 145.129 442.209 146.194C442.209 147.274 442.338 148.112 442.367 149.139" stroke="black" stroke-width="1.21095"/>
<path d="M443.475 166.103C443.422 166.103 443.37 166.103 443.317 166.103C443.359 166.252 443.317 167.102 443.317 167.67C443.317 168.525 443.333 169.359 443.475 169.908" fill="white"/>
<path d="M443.475 166.103C443.422 166.103 443.37 166.103 443.317 166.103C443.359 166.252 443.317 167.102 443.317 167.67C443.317 168.525 443.333 169.359 443.475 169.908" stroke="black" stroke-width="1.21095"/>
<path d="M445.217 166.896C445.217 167.002 445.217 167.108 445.217 167.213V166.896C445.217 167.002 445.217 167.108 445.217 167.213V166.896C445.182 168.068 445.058 168.716 445.058 169.909C445.058 170.273 444.99 170.55 445.217 170.701" fill="white"/>
<path d="M445.217 166.896C445.217 167.002 445.217 167.108 445.217 167.213V166.896ZM445.217 166.896C445.217 167.002 445.217 167.108 445.217 167.213V166.896ZM445.217 166.896C445.182 168.068 445.058 168.716 445.058 169.909C445.058 170.273 444.99 170.55 445.217 170.701" stroke="black" stroke-width="1.21095"/>
<path d="M446.799 167.847C446.735 169.124 446.522 169.96 446.483 171.272C446.483 171.931 446.615 172.004 446.641 172.604" fill="white"/>
<path d="M446.799 167.847C446.735 169.124 446.522 169.96 446.483 171.272C446.483 171.931 446.615 172.004 446.641 172.604" stroke="black" stroke-width="1.21095"/>
<path d="M448.699 168.813C448.699 168.88 448.699 168.947 448.699 169.013C448.699 168.473 448.709 168.748 448.541 169.815C448.512 170.799 448.382 171.33 448.382 172.419C448.412 173.466 448.643 173.902 448.699 174.823" fill="white"/>
<path d="M448.699 168.813C448.699 168.88 448.699 168.947 448.699 169.013C448.699 168.473 448.709 168.748 448.541 169.815C448.512 170.799 448.382 171.33 448.382 172.419C448.412 173.466 448.643 173.902 448.699 174.823" stroke="black" stroke-width="1.21095"/>
<path d="M450.124 169.433C450.124 169.716 450.038 170.815 449.965 171.494C449.965 172.234 449.965 172.974 449.965 173.714C450.053 174.452 450.214 175.246 450.44 175.775C450.44 175.933 450.44 176.092 450.44 176.25" fill="white"/>
<path d="M450.124 169.433C450.124 169.716 450.038 170.815 449.965 171.494C449.965 172.234 449.965 172.974 449.965 173.714C450.053 174.452 450.214 175.246 450.44 175.775C450.44 175.933 450.44 176.092 450.44 176.25" stroke="black" stroke-width="1.21095"/>
<path d="M439.518 141.739C439.478 142.037 439.243 143.174 439.518 143.905C439.518 144.551 439.591 144.882 439.676 145.349" fill="white"/>
<path d="M439.518 141.739C439.478 142.037 439.243 143.174 439.518 143.905C439.518 144.551 439.591 144.882 439.676 145.349" stroke="black" stroke-width="1.21095"/>
<path d="M457.796 114.323C455.672 114.76 450.497 114.323 448.427 112.796C446.357 111.268 446.357 111.268 446.357 111.268" fill="white"/>
<path d="M457.796 114.323C455.672 114.76 450.497 114.323 448.427 112.796C446.357 111.268 446.357 111.268 446.357 111.268" stroke="black" stroke-width="0.968759"/>
<path d="M457.789 115.367C455.76 116.133 450.581 116.519 448.296 115.337C446.012 114.155 446.012 114.155 446.012 114.155" fill="white"/>
<path d="M457.789 115.367C455.76 116.133 450.581 116.519 448.296 115.337C446.012 114.155 446.012 114.155 446.012 114.155" stroke="black" stroke-width="0.968759"/>
<path d="M457.96 118.143C456.87 119.453 456.108 120.107 455.781 121.853C455.454 123.599 455.454 123.599 455.454 123.599" fill="white"/>
<path d="M457.96 118.143C456.87 119.453 456.108 120.107 455.781 121.853C455.454 123.599 455.454 123.599 455.454 123.599" stroke="black" stroke-width="0.968759"/>
<path d="M459.267 118.798C457.96 120.653 457.088 121.307 456.653 123.162C456.217 125.018 456.217 125.018 456.217 125.018" fill="white"/>
<path d="M459.267 118.798C457.96 120.653 457.088 121.307 456.653 123.162C456.217 125.018 456.217 125.018 456.217 125.018" stroke="black" stroke-width="0.968759"/>
<path d="M460.357 119.998C459.812 122.835 457.633 128.182 455.999 129.928C454.364 131.674 454.365 131.674 454.365 131.674" fill="white"/>
<path d="M460.357 119.998C459.812 122.835 457.633 128.182 455.999 129.928C454.364 131.674 454.365 131.674 454.365 131.674" stroke="black" stroke-width="0.968759"/>
<path d="M452.188 180.268C453.287 180.126 455.425 178.347 455.905 177.708C456.385 177.069 456.421 176.8 456.421 176.8" fill="white"/>
<path d="M452.188 180.268C453.287 180.126 455.425 178.347 455.905 177.708C456.385 177.069 456.421 176.8 456.421 176.8" stroke="black" stroke-width="1.15844"/>
<path d="M452.948 181.713C454.136 181.424 456.45 179.474 456.97 178.815C457.49 178.155 457.595 177.983 457.595 177.983" fill="white"/>
<path d="M452.948 181.713C454.136 181.424 456.45 179.474 456.97 178.815C457.49 178.155 457.595 177.983 457.595 177.983" stroke="black" stroke-width="1.15834"/>
<path d="M453.6 183.043C454.855 182.905 457.452 180.936 458.059 180.223C458.667 179.51 458.667 179.51 458.667 179.51" fill="white"/>
<path d="M453.6 183.043C454.855 182.905 457.452 180.936 458.059 180.223C458.667 179.51 458.667 179.51 458.667 179.51" stroke="black" stroke-width="1.3103"/>
<path d="M438.006 84.1772C438.167 85.5013 438.247 88.1093 437.766 89.7543C437.285 91.3994 437.285 91.3994 437.285 91.3994" fill="white"/>
<path d="M438.006 84.1772C438.167 85.5013 438.247 88.1093 437.766 89.7543C437.285 91.3994 437.285 91.3994 437.285 91.3994" stroke="black" stroke-width="0.968759"/>
<path d="M434.161 80.0046C435.082 80.3256 436.444 81.0478 436.885 81.6497C437.325 82.2515 437.325 82.2515 437.325 82.2515" fill="white"/>
<path d="M434.161 80.0046C435.082 80.3256 436.444 81.0478 436.885 81.6497C437.325 82.2515 437.325 82.2515 437.325 82.2515" stroke="black" stroke-width="0.968759"/>
<path d="M445.279 81.1924C443.294 84.6859 443.91 96.1007 444.321 97.4006C444.731 98.7005 444.731 98.7005 444.731 98.7005" fill="white"/>
<path d="M445.279 81.1924C443.294 84.6859 443.91 96.1007 444.321 97.4006C444.731 98.7005 444.731 98.7005 444.731 98.7005" stroke="black" stroke-width="1.27403"/>
<path d="M451.75 74.1121C452.567 74.3849 454.256 75.7216 454.392 76.4581Z" fill="white"/>
<path d="M451.75 74.1121C452.567 74.3849 454.256 75.7216 454.392 76.4581" stroke="black" stroke-width="0.968759"/>
<path d="M450.442 75.0669C451.26 75.3397 452.948 76.6765 453.084 77.413Z" fill="white"/>
<path d="M450.442 75.0669C451.26 75.3397 452.948 76.6765 453.084 77.413" stroke="black" stroke-width="0.968759"/>
<path d="M532.498 111.759C534.116 111.672 534.247 116.372 532.162 116.263" stroke="white" stroke-width="1.4047"/>
<path d="M532.269 111.853L532.324 115.791" stroke="white" stroke-width="3.4602"/>
<path d="M532.158 111.759C530.54 111.672 530.409 116.372 532.494 116.263" stroke="white" stroke-width="1.4047"/>
<path fill-rule="evenodd" clip-rule="evenodd" d="M458.248 391.263C469.409 396.433 472.137 403.242 477.066 408.672C481.995 414.103 489.343 425.785 503.637 421.835C504.085 418.91 505.932 410.841 511.321 407.191C514.652 405.159 518.715 402.255 519.454 397.318C525.369 398.799 540.18 399.983 540.895 392.135C541.141 389.419 538.819 385.259 541.302 382.396C541.863 382.413 545.007 382.477 545.831 382.091C546.693 381.071 545.842 377.359 545.217 376.535L545.223 376.501C546.699 376.366 550.506 372.882 545.823 370.413C544.589 368.959 544.805 367.771 544.809 366.432C545.583 366.442 547.484 366.42 547.762 366.402C552.698 366.383 552.064 363.194 550.642 359.799C549.656 357.578 544.098 346.964 543.113 345.483C542.127 344.002 542.127 343.262 542.866 341.781C543.605 340.3 543.359 337.831 542.866 336.104C542.373 334.376 541.387 331.66 542.127 330.92C542.866 330.179 542.62 327.711 542.373 327.218C542.127 326.724 542.127 325.49 542.127 324.996C542.127 324.502 541.88 323.268 541.141 322.775C540.402 322.281 539.909 320.553 540.402 320.059C540.895 319.566 540.155 316.11 539.416 315.863C538.677 315.616 537.198 315.123 536.459 313.395C536.546 310.957 534.634 308.191 533.501 306.977C532.762 306.237 533.008 303.768 533.008 303.768L530.84 303.818C530.604 303.739 528.819 301.3 527.094 300.806C525.369 300.313 521.426 298.338 521.426 298.338L518.715 295.376L516.25 296.61C516.25 296.61 514.279 295.87 512.554 295.623C510.828 295.376 507.132 294.142 505.9 292.167C504.667 290.193 504.914 294.517 504.874 294.754C504.717 294.793 502.696 293.648 499.246 293.895C495.795 294.142 491.852 295.623 490.62 295.129C489.388 294.636 488.156 296.117 488.156 296.117C488.156 296.117 485.691 297.598 483.72 297.598C481.748 297.598 480.023 297.598 480.023 297.598L479.777 299.325C479.777 299.325 476.08 300.599 474.355 301.34C472.63 302.08 471.151 303.028 468.933 303.275C466.715 303.522 465.976 304.262 465.976 304.262L466.962 306.237C466.962 306.237 464.3 306.78 463.512 309.446C462.033 311.42 460.061 314.629 458.583 314.876C457.104 315.123 456.118 315.863 456.118 315.863L458.09 318.332C458.09 318.332 457.597 319.072 456.611 320.059C455.625 321.047 453.654 322.775 453.654 322.775L454.886 324.996C454.886 324.996 454.886 325.49 454.64 326.724C454.393 327.958 454.393 330.179 453.161 330.673C451.929 331.167 451.929 332.648 451.929 332.648C451.929 332.648 451.682 332.895 453.161 333.388C454.64 333.882 455.625 333.882 454.886 334.869C454.147 335.857 452.914 337.585 452.914 337.585C452.914 337.585 454.147 338.325 455.379 338.572C456.611 338.819 457.843 338.819 457.843 338.819C457.843 338.819 456.858 343.508 455.872 344.249C454.886 344.989 457.351 345.483 458.829 344.743C460.308 344.002 459.384 346.964 458.398 347.211C457.412 347.458 458.756 347.803 459.914 347.815C460.9 347.569 462.169 347.741 461.602 349.198C460.862 351.172 460.061 352.148 462.033 353.135C464.004 354.122 465.791 358.565 464.806 360.046C463.82 361.527 463.265 363.749 463.265 363.749L467.947 363.996C467.947 363.996 468.268 364.736 467.036 365.97C465.804 367.204 464.571 368.611 464.744 368.957C464.707 369.491 468.453 369.274 468.415 369.808C465.228 385.587 457.659 390.012 457.649 390.843L458.248 391.263L458.248 391.263Z" fill="black" stroke="black" stroke-width="0.968759"/>
<path fill-rule="evenodd" clip-rule="evenodd" d="M536.77 315.684C538.413 316.918 539.85 318.974 538.413 320.208C536.565 321.853 535.744 322.47 535.744 322.47C535.744 322.47 539.029 321.442 539.645 322.675C540.261 323.909 540.979 325.786 539.645 326.171C538.618 326.788 536.36 328.022 536.36 328.022C536.36 328.022 541.492 327.405 540.261 327.61C540.876 329.255 541.492 332.134 538.208 333.368C534.923 334.602 524.658 338.303 522.81 339.331C520.962 340.359 516.856 340.976 514.803 340.976C512.75 340.976 505.153 341.387 506.386 341.387L510.903 342.621C511.673 342.698 501.561 346.064 500.073 345.757C499.277 343.906 488.936 334.19 483.187 346.117C482.571 348.79 484.624 352.902 486.677 353.725C488.73 354.547 489.757 355.575 490.578 357.837C491.399 360.099 493.502 364.134 495.761 363.801C498.868 361.77 500.227 361.95 498.79 363.595C497.199 365.857 493.478 365.96 491.605 363.183C490.039 361.256 488.629 356.27 485.446 354.958C483.803 354.342 481.75 350.435 481.75 350.435C481.75 350.435 478.876 350.229 477.644 351.463C476.412 352.697 473.333 352.697 471.485 352.491C469.638 352.285 466.532 351.592 467.559 351.592C468.585 351.592 464.71 351.463 463.478 351.669C462.246 351.874 462.657 348.584 464.71 346.939C466.763 345.294 472.512 342.621 473.744 340.976C474.975 339.331 483.803 334.396 486.267 334.19C488.73 333.985 491.81 332.34 491.81 332.34C491.81 332.34 487.19 332.263 489.448 331.852C491.707 331.441 496.121 329.667 498.379 328.844C500.638 328.022 502.485 328.022 504.949 328.022C507.413 328.022 523.768 324.01 527.848 321.515C530.928 320.487 513.238 325.631 511.185 325.837C507.695 326.351 506.591 325.657 512.34 322.881C514.803 321.442 525.775 315.679 534.556 313.271C535.455 314.172 535.128 314.45 536.77 315.684V315.684Z" fill="white" stroke="black" stroke-width="0.121095"/>
<path d="M491.941 349.535C491.861 349.545 491.53 349.603 491.318 349.826C491.082 350.13 490.882 350.403 490.763 350.697C490.676 351.09 490.561 351.413 490.625 351.787C490.758 352.152 490.936 352.412 491.179 352.658C491.453 352.997 491.653 353.169 491.941 353.384C492.262 353.537 492.57 353.833 492.842 353.965C492.972 354.142 493.306 354.272 493.465 354.474C493.65 354.722 493.792 354.845 493.811 355.2C493.931 355.553 493.971 355.987 494.019 356.362C494.087 356.774 494.184 357.161 494.227 357.524C494.4 357.835 494.589 357.994 494.989 358.105C495.32 358.164 495.662 358.177 496.028 358.177C496.235 357.979 496.588 357.755 496.79 357.524C496.79 357.33 496.79 357.137 496.79 356.943" stroke="white" stroke-width="2.45079" stroke-linecap="round"/>
<path fill-rule="evenodd" clip-rule="evenodd" d="M497.714 347.915C495.943 345.06 484.849 339.813 487.545 349.998C488.162 351.079 487.006 351.542 486.698 350.77C483.847 338.733 496.097 343.748 498.023 346.912C498.793 348.224 497.714 347.992 497.714 347.915Z" fill="white" stroke="white" stroke-width="0.968759"/>
<path d="M537.698 330.554C533.538 330.477 529.146 330.708 525.757 332.869C522.367 335.029 519.362 335.646 515.742 335.646C512.121 335.646 510.272 335.724 510.272 335.724" stroke="black" stroke-width="1.93752" stroke-linecap="round"/>
<path d="M486.501 336.809C479.548 339.504 478.316 340.297 475.381 342.199C472.446 344.102 471.36 344.419 468.889 346.004C467.05 347.114 465.953 348.383 465.953 348.383C464.37 349.651 472.822 343.468 478.313 344.736C480.321 344.736 480.63 344.736 482.484 342.675C484.338 340.614 486.501 338.87 489.59 337.601C492.68 336.333 498.087 334.272 498.087 334.272" stroke="black" stroke-width="1.91409"/>
<path d="M478.775 348.858C478.354 348.858 476.6 348.791 475.926 349.017C475.338 349.096 474.396 349.173 473.868 349.334C472.973 349.44 472.148 349.627 471.177 349.651C470.133 349.66 469.762 349.98 468.803 350.126C468.503 350.502 467.937 350.953 467.536 351.236" stroke="black" stroke-width="1.69533" stroke-linecap="round"/>
<path d="M536.212 343.015C533.66 346.541 529.748 348.474 525.472 349.391C525.58 350.428 530.661 350.494 532.555 352.897" stroke="white" stroke-width="2.17971"/>
<path d="M440.725 302.404C440.643 303.304 440.361 307.236 440.752 307.28C442.968 307.597 444.497 307.969 446.396 309.871C448.296 311.774 452.643 315.013 455.108 310.567C456.374 308.03 453.29 306.843 451.707 306.843C450.151 306.789 447.707 305.585 445.174 304.951C442.641 304.317 441.613 302.687 441.297 303.004L440.725 302.404V302.404Z" fill="white" stroke="black" stroke-width="1.93752"/>
<path d="M430.743 312.116C430.396 311.925 428.754 309.727 429.604 307.048C430.836 305.197 424.026 309.04 425.463 311.097C427.282 312.516 430.885 312.498 430.743 312.116V312.116Z" fill="white" stroke="black" stroke-width="1.93752"/>
<path d="M446.96 303.533C446.99 303.113 447.04 299.362 446.977 298.533C445.704 298.342 441.937 297.795 441.116 299.029C438.195 303.448 446.701 305.65 446.906 305.033L446.96 303.533H446.96Z" fill="white" stroke="black" stroke-width="1.93752"/>
<path d="M453.829 312.394L448.492 330.9C448.492 330.9 445.478 344.037 454.651 347.556C457.525 347.762 458.551 347.35 458.551 347.35L457.73 351.874C453.659 356.079 451.033 355.086 447.543 353.646C444.053 352.207 443.911 352.094 442.064 351.066C440.216 350.038 437.669 344.242 437.385 342.595C436.593 338.334 433.919 329.966 425.888 312.188C427.337 312.061 436.784 313.017 437.42 313.017C437.738 313.527 439.224 315.957 441.511 316.918C444.024 317.946 447.644 314.982 443.975 312.6C442.182 311.455 436.234 312.804 436.344 309.692C436.496 306.988 440.485 307.254 442.127 307.459C443.77 307.665 446.028 309.515 447.055 310.543C449.353 312.846 452.598 313.217 453.829 312.394Z" fill="white" stroke="black" stroke-width="1.93752"/>
<path d="M462.041 356.398C460.81 358.454 459.578 360.922 458.962 364.212C458.346 367.501 456.568 372.103 451.982 373.259C448.286 374.287 445.002 375.932 444.18 378.811C443.359 381.69 442.772 385.362 442.772 385.298L437.059 377.201C437.122 376.117 437.166 373.479 437.166 370.395C437.229 365.909 440.549 364.814 443.833 363.58C447.118 362.346 450.799 360.814 451.826 358.964C452.852 357.113 455.472 353.93 456.909 352.697C458.346 351.463 462.041 356.398 462.041 356.398V356.398Z" fill="white" stroke="black" stroke-width="1.93752"/>
<path d="M456.003 394.569C452.829 400.284 452.103 407.623 450.798 413.091C448.533 408.783 445.008 405.712 441.292 403.294C441.074 399.005 439.989 393.084 438.758 391.233C432.808 382.549 436.995 377.577 436.995 377.577C442.94 384.57 443.146 389.574 455.993 394.559L456.003 394.569V394.569Z" fill="white" stroke="black" stroke-width="1.93752"/>
<path d="M461.657 412.234C461.821 413.653 459.926 418.584 456.718 418.804C453.567 419.021 451.749 416.593 451.172 413.755L452.751 404.224L461.657 412.234Z" fill="white" stroke="black" stroke-width="1.93752"/>
<path fill-rule="evenodd" clip-rule="evenodd" d="M461.679 349.017C462.312 347.273 461.363 347.273 459.621 348.065C456.772 349.809 458.83 354.249 461.996 355.2C463.737 355.993 464.687 353.932 462.154 352.98C459.78 352.346 461.679 348.858 461.679 349.017H461.521H461.679V349.017Z" fill="white" stroke="black" stroke-width="0.968759"/>
<path d="M441.101 376.148C441.101 376.219 441.101 376.291 441.101 376.363C441.101 375.782 441.111 376.077 440.942 377.223C440.942 378.386 440.856 379.364 440.784 380.449C440.784 381.347 440.891 381.991 440.942 382.814" fill="white"/>
<path d="M441.101 376.148C441.101 376.219 441.101 376.291 441.101 376.363C441.101 375.782 441.111 376.077 440.942 377.223C440.942 378.386 440.856 379.364 440.784 380.449C440.784 381.347 440.891 381.991 440.942 382.814" stroke="black" stroke-width="1.21095"/>
<path d="M442.684 377.221C442.684 377.352 442.684 377.483 442.684 377.614C442.684 376.888 442.705 377.093 442.526 378.203C442.462 379.309 442.24 379.887 442.209 380.952C442.209 382.032 442.338 382.87 442.367 383.897" fill="white"/>
<path d="M442.684 377.221C442.684 377.352 442.684 377.483 442.684 377.614C442.684 376.888 442.705 377.093 442.526 378.203C442.462 379.309 442.24 379.887 442.209 380.952C442.209 382.032 442.338 382.87 442.367 383.897" stroke="black" stroke-width="1.21095"/>
<path d="M443.475 400.861C443.422 400.861 443.37 400.861 443.317 400.861C443.359 401.01 443.317 401.86 443.317 402.428C443.317 403.283 443.333 404.117 443.475 404.666" fill="white"/>
<path d="M443.475 400.861C443.422 400.861 443.37 400.861 443.317 400.861C443.359 401.01 443.317 401.86 443.317 402.428C443.317 403.283 443.333 404.117 443.475 404.666" stroke="black" stroke-width="1.21095"/>
<path d="M445.217 401.654C445.217 401.76 445.217 401.866 445.217 401.971V401.654C445.217 401.76 445.217 401.866 445.217 401.971V401.654C445.182 402.826 445.058 403.474 445.058 404.667C445.058 405.031 444.99 405.308 445.217 405.459" fill="white"/>
<path d="M445.217 401.654C445.217 401.76 445.217 401.866 445.217 401.971V401.654ZM445.217 401.654C445.217 401.76 445.217 401.866 445.217 401.971V401.654ZM445.217 401.654C445.182 402.826 445.058 403.474 445.058 404.667C445.058 405.031 444.99 405.308 445.217 405.459" stroke="black" stroke-width="1.21095"/>
<path d="M446.799 402.605C446.735 403.882 446.522 404.718 446.483 406.03C446.483 406.689 446.615 406.763 446.641 407.362" fill="white"/>
<path d="M446.799 402.605C446.735 403.882 446.522 404.718 446.483 406.03C446.483 406.689 446.615 406.763 446.641 407.362" stroke="black" stroke-width="1.21095"/>
<path d="M448.699 403.571C448.699 403.638 448.699 403.705 448.699 403.771C448.699 403.231 448.709 403.506 448.541 404.573C448.512 405.557 448.382 406.088 448.382 407.177C448.412 408.224 448.643 408.66 448.699 409.581" fill="white"/>
<path d="M448.699 403.571C448.699 403.638 448.699 403.705 448.699 403.771C448.699 403.231 448.709 403.506 448.541 404.573C448.512 405.557 448.382 406.088 448.382 407.177C448.412 408.224 448.643 408.66 448.699 409.581" stroke="black" stroke-width="1.21095"/>
<path d="M450.124 404.191C450.124 404.474 450.038 405.573 449.965 406.252C449.965 406.992 449.965 407.732 449.965 408.472C450.053 409.21 450.214 410.005 450.44 410.533C450.44 410.691 450.44 410.85 450.44 411.008" fill="white"/>
<path d="M450.124 404.191C450.124 404.474 450.038 405.573 449.965 406.252C449.965 406.992 449.965 407.732 449.965 408.472C450.053 409.21 450.214 410.005 450.44 410.533C450.44 410.691 450.44 410.85 450.44 411.008" stroke="black" stroke-width="1.21095"/>
<path d="M439.518 376.497C439.478 376.795 439.243 377.932 439.518 378.663C439.518 379.309 439.591 379.64 439.676 380.107" fill="white"/>
<path d="M439.518 376.497C439.478 376.795 439.243 377.932 439.518 378.663C439.518 379.309 439.591 379.64 439.676 380.107" stroke="black" stroke-width="1.21095"/>
<path d="M457.796 349.082C455.672 349.518 450.497 349.082 448.427 347.554C446.357 346.026 446.357 346.026 446.357 346.026" fill="white"/>
<path d="M457.796 349.082C455.672 349.518 450.497 349.082 448.427 347.554C446.357 346.026 446.357 346.026 446.357 346.026" stroke="black" stroke-width="0.968759"/>
<path d="M457.789 350.125C455.76 350.891 450.581 351.277 448.296 350.095C446.012 348.913 446.012 348.913 446.012 348.913" fill="white"/>
<path d="M457.789 350.125C455.76 350.891 450.581 351.277 448.296 350.095C446.012 348.913 446.012 348.913 446.012 348.913" stroke="black" stroke-width="0.968759"/>
<path d="M457.96 352.901C456.87 354.211 456.108 354.865 455.781 356.611C455.454 358.357 455.454 358.357 455.454 358.357" fill="white"/>
<path d="M457.96 352.901C456.87 354.211 456.108 354.865 455.781 356.611C455.454 358.357 455.454 358.357 455.454 358.357" stroke="black" stroke-width="0.968759"/>
<path d="M459.267 353.556C457.96 355.411 457.088 356.066 456.653 357.921C456.217 359.776 456.217 359.776 456.217 359.776" fill="white"/>
<path d="M459.267 353.556C457.96 355.411 457.088 356.066 456.653 357.921C456.217 359.776 456.217 359.776 456.217 359.776" stroke="black" stroke-width="0.968759"/>
<path d="M460.357 354.756C459.812 357.593 457.633 362.94 455.999 364.686C454.364 366.432 454.365 366.432 454.365 366.432" fill="white"/>
<path d="M460.357 354.756C459.812 357.593 457.633 362.94 455.999 364.686C454.364 366.432 454.365 366.432 454.365 366.432" stroke="black" stroke-width="0.968759"/>
<path d="M452.188 415.026C453.287 414.884 455.425 413.105 455.905 412.466C456.385 411.827 456.421 411.558 456.421 411.558" fill="white"/>
<path d="M452.188 415.026C453.287 414.884 455.425 413.105 455.905 412.466C456.385 411.827 456.421 411.558 456.421 411.558" stroke="black" stroke-width="1.15844"/>
<path d="M452.948 416.471C454.136 416.183 456.45 414.232 456.97 413.573C457.49 412.913 457.595 412.741 457.595 412.741" fill="white"/>
<path d="M452.948 416.471C454.136 416.183 456.45 414.232 456.97 413.573C457.49 412.913 457.595 412.741 457.595 412.741" stroke="black" stroke-width="1.15834"/>
<path d="M453.6 417.801C454.855 417.663 457.452 415.694 458.059 414.981C458.667 414.268 458.667 414.268 458.667 414.268" fill="white"/>
<path d="M453.6 417.801C454.855 417.663 457.452 415.694 458.059 414.981C458.667 414.268 458.667 414.268 458.667 414.268" stroke="black" stroke-width="1.3103"/>
<path d="M438.006 318.935C438.167 320.259 438.247 322.867 437.766 324.512C437.285 326.157 437.285 326.157 437.285 326.157" fill="white"/>
<path d="M438.006 318.935C438.167 320.259 438.247 322.867 437.766 324.512C437.285 326.157 437.285 326.157 437.285 326.157" stroke="black" stroke-width="0.968759"/>
<path d="M434.161 314.763C435.082 315.084 436.444 315.806 436.885 316.408C437.325 317.01 437.325 317.01 437.325 317.01" fill="white"/>
<path d="M434.161 314.763C435.082 315.084 436.444 315.806 436.885 316.408C437.325 317.01 437.325 317.01 437.325 317.01" stroke="black" stroke-width="0.968759"/>
<path d="M445.279 315.95C443.294 319.444 443.91 330.859 444.321 332.159C444.731 333.459 444.731 333.459 444.731 333.459" fill="white"/>
<path d="M445.279 315.95C443.294 319.444 443.91 330.859 444.321 332.159C444.731 333.459 444.731 333.459 444.731 333.459" stroke="black" stroke-width="1.27403"/>
<path d="M451.75 308.87C452.567 309.143 454.256 310.48 454.392 311.216Z" fill="white"/>
<path d="M451.75 308.87C452.567 309.143 454.256 310.48 454.392 311.216" stroke="black" stroke-width="0.968759"/>
<path d="M450.442 309.825C451.26 310.098 452.948 311.435 453.084 312.171Z" fill="white"/>
<path d="M450.442 309.825C451.26 310.098 452.948 311.435 453.084 312.171" stroke="black" stroke-width="0.968759"/>
<path d="M532.498 346.517C534.116 346.43 534.247 351.13 532.162 351.021" stroke="white" stroke-width="1.4047"/>
<path d="M532.269 346.611L532.324 350.549" stroke="white" stroke-width="3.4602"/>
<path d="M532.158 346.517C530.54 346.43 530.409 351.13 532.494 351.021" stroke="white" stroke-width="1.4047"/>
</g>
</g>
<defs>
<clipPath id="clip0_4336_123281">
<rect width="640" height="480" fill="white"/>
</clipPath>
<clipPath id="clip1_4336_123281">
<rect width="645" height="482" fill="white" transform="translate(-3 -1)"/>
</clipPath>
</defs>
</svg>
