<?xml version="1.0" encoding="utf-8"?>
<!-- Generator: Adobe Illustrator 26.4.1, SVG Export Plug-In . SVG Version: 6.00 Build 0)  -->
<svg version="1.1" id="Layer_1" xmlns="http://www.w3.org/2000/svg" xmlns:xlink="http://www.w3.org/1999/xlink" x="0px" y="0px"
	 viewBox="0 0 55.2 38.4" style="enable-background:new 0 0 55.2 38.4;" xml:space="preserve">
<style type="text/css">
	.st0{fill:#B22234;}
	.st1{fill:#FFFFFF;}
	.st2{fill:#3C3B6E;}
</style>
<g>
	<path class="st0" d="M55.2,35.4v3l-3,0H3c-0.9,0-1.7-0.4-2.2-1C0.3,36.9,0,36.2,0,35.4V3c0-1.7,1.4-3,3-3l0,0h49.1h3l0,3"/>
	<path class="st0" d="M55.2,3v32.3"/>
	<path class="st1" d="M0,2.7h55.2c0,0.1,0,0.2,0,0.3V6H0V3C0,2.9,0,2.8,0,2.7L0,2.7z M55.2,8.7v3.2H0V8.7H55.2L55.2,8.7z M55.2,14.6
		v3.2H0v-3.2L55.2,14.6L55.2,14.6z M55.2,20.5v3.2H0v-3.2H55.2L55.2,20.5z M55.2,26.5v3.2H0v-3.2H55.2L55.2,26.5z M55.2,32.4v2.9
		c0,0.1,0,0.2,0,0.3H0c0-0.1,0-0.2,0-0.3v-0.1v-2.8L55.2,32.4L55.2,32.4z"/>
	<path class="st2" d="M20.8,0v20.7H0V3c0-1.7,1.4-3,3-3H20.8L20.8,0L20.8,0z"/>
	<polygon class="st1" points="1.2,2.9 1.9,5 0.1,3.7 2.4,3.7 0.5,5 	"/>
	<polygon class="st1" points="1.2,7 1.9,9.2 0.1,7.8 2.4,7.8 0.5,9.2 	"/>
	<polygon class="st1" points="1.2,11.2 1.9,13.3 0.1,12 2.4,12 0.5,13.3 	"/>
	<polygon class="st1" points="1.2,15.3 1.9,17.5 0.1,16.2 2.4,16.2 0.5,17.5 	"/>
	<polygon class="st1" points="3.7,0.8 4.4,2.9 2.5,1.6 4.8,1.6 3,2.9 	"/>
	<polygon class="st1" points="3.7,4.9 4.4,7.1 2.5,5.8 4.8,5.8 3,7.1 	"/>
	<polygon class="st1" points="3.7,9.1 4.4,11.2 2.5,9.9 4.8,9.9 3,11.2 	"/>
	<polygon class="st1" points="3.7,13.3 4.4,15.4 2.5,14.1 4.8,14.1 3,15.4 	"/>
	<polygon class="st1" points="3.7,17.4 4.4,19.6 2.5,18.2 4.8,18.2 3,19.6 	"/>
	<polygon class="st1" points="6.1,2.9 6.8,5 5,3.7 7.2,3.7 5.4,5 	"/>
	<polygon class="st1" points="6.1,7 6.8,9.2 5,7.8 7.2,7.8 5.4,9.2 	"/>
	<polygon class="st1" points="6.1,11.2 6.8,13.3 5,12 7.2,12 5.4,13.3 	"/>
	<polygon class="st1" points="6.1,15.3 6.8,17.5 5,16.2 7.2,16.2 5.4,17.5 	"/>
	<polygon class="st1" points="8.6,0.8 9.3,2.9 7.4,1.6 9.7,1.6 7.9,2.9 	"/>
	<polygon class="st1" points="8.6,4.9 9.3,7.1 7.4,5.8 9.7,5.8 7.9,7.1 	"/>
	<polygon class="st1" points="8.6,9.1 9.3,11.2 7.4,9.9 9.7,9.9 7.9,11.2 	"/>
	<polygon class="st1" points="8.6,13.3 9.3,15.4 7.4,14.1 9.7,14.1 7.9,15.4 	"/>
	<polygon class="st1" points="8.6,17.4 9.3,19.6 7.4,18.2 9.7,18.2 7.9,19.6 	"/>
	<polygon class="st1" points="11,2.9 11.7,5 9.9,3.7 12.1,3.7 10.3,5 	"/>
	<polygon class="st1" points="11,7 11.7,9.2 9.9,7.8 12.1,7.8 10.3,9.2 	"/>
	<polygon class="st1" points="11,11.2 11.7,13.3 9.9,12 12.1,12 10.3,13.3 	"/>
	<polygon class="st1" points="11,15.3 11.7,17.5 9.9,16.2 12.1,16.2 10.3,17.5 	"/>
	<polygon class="st1" points="13.5,0.8 14.2,2.9 12.3,1.6 14.6,1.6 12.8,2.9 	"/>
	<polygon class="st1" points="13.5,4.9 14.2,7.1 12.3,5.8 14.6,5.8 12.8,7.1 	"/>
	<polygon class="st1" points="13.5,9.1 14.2,11.2 12.3,9.9 14.6,9.9 12.8,11.2 	"/>
	<polygon class="st1" points="13.5,13.3 14.2,15.4 12.3,14.1 14.6,14.1 12.8,15.4 	"/>
	<polygon class="st1" points="13.5,17.4 14.2,19.6 12.3,18.2 14.6,18.2 12.8,19.6 	"/>
	<polygon class="st1" points="15.9,2.9 16.6,5 14.8,3.7 17,3.7 15.2,5 	"/>
	<polygon class="st1" points="15.9,7 16.6,9.2 14.8,7.8 17,7.8 15.2,9.2 	"/>
	<polygon class="st1" points="15.9,11.2 16.6,13.3 14.8,12 17,12 15.2,13.3 	"/>
	<polygon class="st1" points="15.9,15.3 16.6,17.5 14.8,16.2 17,16.2 15.2,17.5 	"/>
	<polygon class="st1" points="18.4,0.8 19,2.9 17.2,1.6 19.5,1.6 17.6,2.9 	"/>
	<polygon class="st1" points="18.4,4.9 19,7.1 17.2,5.8 19.5,5.8 17.6,7.1 	"/>
	<polygon class="st1" points="18.4,9.1 19,11.2 17.2,9.9 19.5,9.9 17.6,11.2 	"/>
	<polygon class="st1" points="18.4,13.3 19,15.4 17.2,14.1 19.5,14.1 17.6,15.4 	"/>
	<polygon class="st1" points="18.4,17.4 19,19.6 17.2,18.2 19.5,18.2 17.6,19.6 	"/>
</g>
<rect x="0" y="0" class="st2" width="0.6" height="3.2"/>
<rect x="0.4" y="0" class="st2" width="1.2" height="1.6"/>
<rect x="0.9" y="0" class="st2" width="2.4" height="0.6"/>
<rect x="0" y="35.7" class="st0" width="5.1" height="2.7"/>
</svg>
