<?xml version="1.0" encoding="UTF-8"?>
<svg width="27px" height="23px" viewBox="0 0 27 23" version="1.1" xmlns="http://www.w3.org/2000/svg" xmlns:xlink="http://www.w3.org/1999/xlink">
    <title>arrow-left</title>
    <g id="Navigation" stroke="none" stroke-width="1" fill="none" fill-rule="evenodd">
        <g id="Mobile-/-Navigation-/-Shop-Category" transform="translate(-21.000000, -96.000000)" fill="#0279A8" fill-rule="nonzero">
            <g id="Group-Copy-8" transform="translate(0.000000, 83.000000)">
                <g id="arrow-left" transform="translate(21.000457, 13.500536)">
                    <path d="M26.1968091,11.2494635 C26.1968091,12.0258307 25.5663398,12.6563 24.7899726,12.6563 L4.9155584,12.6563 L12.6909497,20.0742692 C13.2549146,20.6107539 13.2750705,21.5045428 12.7385572,22.0629412 C12.2020724,22.6250893 11.3123855,22.6452452 10.7498851,22.1105486 L0.437385142,12.2667986 C0.157452822,12.0053226 0,11.6361826 0,11.2494635 C0,10.8627444 0.157452822,10.4994634 0.435773134,10.2299326 L10.7482731,0.386182643 C11.308136,-0.14643433 12.1987608,-0.12651267 12.7378231,0.435987688 C13.2743078,0.992628313 13.254151,1.886183 12.6902157,2.42465971 L4.91482526,9.84262703 L24.8425582,9.84262703 C25.6167296,9.84321354 26.1968091,10.4760262 26.1968091,11.2494635 L26.1968091,11.2494635 Z" id="Path"></path>
                </g>
            </g>
        </g>
    </g>
</svg>