<?xml version="1.0" encoding="utf-8"?>
<!-- Generator: Adobe Illustrator 24.3.0, SVG Export Plug-In . SVG Version: 6.00 Build 0)  -->
<svg version="1.1" id="Layer_1" xmlns="http://www.w3.org/2000/svg" xmlns:xlink="http://www.w3.org/1999/xlink" x="0px" y="0px"
	 viewBox="0 0 26 20" style="enable-background:new 0 0 26 20;" xml:space="preserve">
<style type="text/css">
	.st0{fill:#FFFFFF;}
	.st1{fill:#133D91;}
	.st2{fill:#ED1C24;}
	.st3{fill:#FE0000;}
	.st4{fill:#FE0101;}
</style>
<rect y="0" class="st0" width="26" height="20"/>
<g>
	<path class="st3" d="M19.5,20.2c0-0.1,0-0.2,0-0.2c0-6.7,0-13.3,0-20c0-0.2,0-0.3,0.2-0.3c2.2,0,4.5,0,6.7,0c0,0,0,0.1,0,0.1
		c-0.1,0.1,0,0.2,0,0.3c0,6.6,0,13.2,0,19.8c0,0.1,0,0.2,0,0.3c0,0,0,0,0,0.1C24.1,20.2,21.8,20.2,19.5,20.2z"/>
	<path class="st4" d="M26,16.4c-0.1,0,0-0.1,0-0.2c0-4.2,0-8.3,0-12.5c0-0.1,0-0.1,0-0.2C26,7.9,26,12.1,26,16.4z"/>
	<path class="st3" d="M6.5,20.2c-2.3,0-4.6,0-6.9,0c0-0.1,0-0.2,0-0.3c0-6.7,0-13.3,0-20c0-0.2,0-0.3,0.2-0.3c2.2,0,4.4,0,6.6,0
		c0.1,0,0.2,0,0.2,0.2c0,6.7,0,13.5,0,20.2C6.5,20.1,6.5,20.2,6.5,20.2z"/>
</g>
<path class="st4" d="M15.2,12.6c-0.5-0.1-1-0.1-1.6-0.2c-0.1,0-0.1,0-0.2,0c-0.2,0-0.3,0-0.3,0.3c0,0.5,0,0.9,0,1.4
	c0,0.1,0,0.2,0,0.3c0,0.1,0,0.1-0.1,0.1c-0.1,0-0.1,0-0.1-0.1c0-0.3,0-0.7,0-1c0-0.2,0-0.5,0-0.7c0-0.2-0.1-0.3-0.3-0.3
	c-0.5,0.1-1.1,0.1-1.6,0.2c-0.1,0-0.1,0-0.1-0.1c0,0,0,0,0,0c0.2-0.4,0-0.7-0.3-1c-0.5-0.4-1-0.8-1.6-1.2c0,0-0.1-0.1-0.1-0.1
	C8.9,10.1,9,10,9.1,10c0.2,0,0.2-0.2,0.2-0.3c0-0.2-0.1-0.3-0.1-0.5C9.1,9,9.1,8.8,9,8.6c0-0.1,0-0.2,0.1-0.1c0.2,0,0.4,0.1,0.6,0.1
	c0.1,0,0.2,0,0.3,0c0.2,0,0.3-0.1,0.3-0.2c0-0.1,0.1-0.2,0.1-0.3c0.2,0.2,0.3,0.3,0.5,0.5c0.2,0.2,0.3,0.3,0.4,0.5
	c0.1,0.1,0.1,0.1,0.2,0.1c0.1,0,0.1-0.1,0.1-0.2c0-0.1,0-0.1,0-0.2c-0.1-0.6-0.3-1.2-0.4-1.8c0,0,0-0.1,0-0.2
	c0.2,0.1,0.5,0.2,0.7,0.3c0.1,0,0.1,0,0.2-0.1c0.2-0.4,0.5-0.9,0.7-1.3c0,0,0-0.1,0.1-0.1C13.3,6,13.6,6.5,13.8,7
	C13.9,7.1,13.9,7.1,14,7c0.2-0.1,0.4-0.2,0.7-0.3c-0.1,0.3-0.1,0.5-0.1,0.7c-0.1,0.4-0.2,0.9-0.3,1.3c0,0.1,0,0.2,0,0.3
	c0,0.1,0.1,0.1,0.2,0.1c0.1,0,0.1-0.1,0.2-0.2c0.3-0.3,0.5-0.6,0.8-0.9c0,0.1,0.1,0.2,0.1,0.3c0.1,0.4,0.3,0.4,0.7,0.3
	c0.2,0,0.3-0.1,0.5-0.1c0.1,0,0.1,0,0.2,0c-0.1,0.3-0.2,0.6-0.2,0.9c0,0.1,0,0.1-0.1,0.2c0,0.2,0,0.3,0.2,0.4c0.1,0,0.2,0.1,0.2,0.1
	c0,0.1,0,0.1-0.1,0.1c-0.6,0.5-1.2,0.9-1.8,1.4c-0.3,0.2-0.3,0.4-0.2,0.7C15.1,12.4,15.2,12.5,15.2,12.6z"/>
</svg>
