<svg width="100px" height="82px" viewBox="0 0 100 82" version="1.1" xmlns="http://www.w3.org/2000/svg" xmlns:xlink="http://www.w3.org/1999/xlink">
    <g id="Page-1" stroke="none" stroke-width="1" fill="none" fill-rule="evenodd" opacity="0.500021798">
        <g id="Desktop-/-Our-Nature-/-The-Source" transform="translate(-1070.000000, -3047.000000)" fill="#FFC900" fill-rule="nonzero">
            <path d="M1092.59322,3129 C1103.52542,3129 1111.90678,3120.29204 1111.90678,3109.76991 C1111.90678,3098.88496 1104.61864,3091.26549 1094.41525,3091.26549 C1092.59322,3091.26549 1090.04237,3091.62832 1089.67797,3091.62832 C1090.77119,3080.0177 1101.33898,3065.50442 1113,3057.88496 L1099.51695,3047 C1082.75424,3058.97345 1070,3079.29204 1070,3101.42478 C1070,3119.20354 1080.5678,3129 1092.59322,3129 Z M1149.59322,3129 C1160.52542,3129 1169.27119,3120.29204 1169.27119,3109.76991 C1169.27119,3098.88496 1161.61864,3091.26549 1151.41525,3091.26549 C1149.59322,3091.26549 1147.04237,3091.62832 1146.67797,3091.62832 C1148.13559,3080.0177 1158.33898,3065.50442 1170,3057.88496 L1156.51695,3047 C1139.75424,3058.97345 1127,3079.29204 1127,3101.42478 C1127,3119.20354 1137.5678,3129 1149.59322,3129 Z" id="“-copy" transform="translate(1120.000000, 3088.000000) rotate(-180.000000) translate(-1120.000000, -3088.000000) "></path>
        </g>
    </g>
</svg>